<svg width="396" height="200" viewBox="0 0 396 200" fill="none" xmlns="http://www.w3.org/2000/svg">
<mask id="mask0_24_7" style="mask-type:luminance" maskUnits="userSpaceOnUse" x="0" y="0" width="396" height="200">
<path d="M395.12 0H0V199.791H395.12V0Z" fill="white"/>
</mask>
<g mask="url(#mask0_24_7)">
<path d="M395.12 5.72205e-06H2.28882e-05V199.791H395.12V5.72205e-06Z" fill="#2135B5"/>
<path d="M450.653 -7.99162H441.315L436.892 5.72205e-06V3.2466V6.4932V14.4848H447.704L459.499 9.98953V5.72205e-06L450.653 -7.99162Z" fill="#2135B5"/>
<path d="M300.128 16.1486C308.591 9.64406 317.326 2.95549 332.059 3.14913L332.03 4.99887C318.143 4.81638 309.941 11.0409 301.466 17.5546C293.008 24.0545 284.278 30.8467 269.548 30.8692C256.616 30.889 247.532 26.1947 238.665 21.3896C229.781 16.5739 221.131 11.6622 208.825 10.7601C193.814 9.65972 182.642 13.3961 171.312 17.7566C159.991 22.1132 148.46 27.1221 132.988 28.2599C115.375 29.5551 101.557 25.7999 88.008 22.5189C74.4513 19.2361 61.1271 16.4138 44.2172 19.3106C35.3498 20.8296 24.42 24.3383 15.6673 27.4874C11.2997 29.0587 7.49032 30.5346 4.77319 31.6175C3.41482 32.159 2.32987 32.6019 1.58524 32.9091C1.21293 33.0629 0.925682 33.1827 0.731927 33.2638C0.63509 33.3045 0.561565 33.3354 0.512471 33.3561C0.48792 33.3664 0.469418 33.3744 0.457204 33.3794C0.451141 33.382 0.446499 33.3838 0.443539 33.3851L0.43952 33.387C0.438952 33.3861 0.425113 33.3598 1.81794e-06 32.5506C-0.43945 31.7143 -0.438913 31.7141 -0.438913 31.7141L-0.437909 31.7137C-0.43702 31.7134 -0.435748 31.7128 -0.43409 31.7121C-0.430727 31.7106 -0.425718 31.7086 -0.419219 31.7058C-0.406219 31.7002 -0.387048 31.6921 -0.361741 31.6814C-0.311034 31.6599 -0.235816 31.6283 -0.13726 31.587C0.0598482 31.5045 0.350546 31.3832 0.726503 31.2281C1.47847 30.9177 2.57161 30.4713 3.93897 29.9263C6.67341 28.8366 10.5065 27.3514 14.9026 25.77C23.6771 22.6129 34.7598 19.0476 43.832 17.4934C61.2287 14.5131 74.9394 17.4386 88.5433 20.7328C102.155 24.0292 115.624 27.6807 132.821 26.4161C147.891 25.3079 159.091 20.4472 170.502 16.0559C181.902 11.6683 193.461 7.77781 208.994 8.91637C221.852 9.859 230.898 15.0196 239.729 19.8055C248.578 24.6017 257.231 29.0382 269.546 29.0193C283.441 28.9981 291.648 22.6669 300.128 16.1486Z" fill="#F5F5F5"/>
<path d="M5.5564 175.005L13.5823 161.682H30.8688H48.5668L56.1811 175.005H5.5564Z" fill="#C3273C"/>
<path d="M48.8809 161.22L57.0239 175.468H4.69267L13.2758 161.22H48.8809ZM6.42 174.543H55.3384L48.2528 162.145H13.8888L6.42 174.543Z" fill="#F5F5F5"/>
<path d="M55.2402 175.005L55.2554 199.791H54.2265L54.2113 175.005L55.2402 175.005Z" fill="#F5F5F5"/>
<path d="M22.7085 187.988V180.772H34.7669V187.988H22.7085Z" fill="#F5F5F5"/>
<path d="M34.87 180.679V188.081H22.6056V180.679H34.87ZM22.8114 187.896H34.6642V180.864H22.8114V187.896Z" fill="black"/>
<path d="M28.8407 180.772V187.988H28.6349V180.772H28.8407Z" fill="black"/>
<path d="M34.7671 184.688V184.873H22.7085V184.688H34.7671Z" fill="black"/>
<path d="M52.6826 189.788V199.791H51.6631V190.376L47.5378 188.162L43.4125 190.376V199.791H42.3931V189.788L47.5378 187.026L52.6826 189.788Z" fill="#F5F5F5"/>
<path d="M8.02591 175.002V200.53V199.855H6.99696V175.002H8.02591Z" fill="#F5F5F5"/>
<path d="M76.3487 138.928L81.0819 126.534H93.0178H107.012L110.099 138.928H76.3487Z" fill="#D0B895"/>
<path d="M107.424 126.072L110.741 139.391H75.6282L80.7146 126.072H107.424ZM77.0692 138.466H109.456L106.6 126.996H81.4491L77.0692 138.466Z" fill="#F5F5F5"/>
<path d="M109.481 138.928V199.791H108.452V138.928H109.481Z" fill="#F5F5F5"/>
<path d="M102.278 188.599C103.185 188.599 104.205 188.983 104.946 189.326C105.328 189.501 105.658 189.675 105.893 189.807C106.011 189.873 106.106 189.929 106.171 189.968C106.204 189.986 106.23 190.003 106.247 190.014C106.256 190.019 106.263 190.023 106.268 190.027C106.271 190.027 106.273 190.029 106.274 190.03C106.275 190.03 106.275 190.03 106.276 190.03C106.276 190.03 106.276 190.03 106.276 190.03C106.276 190.032 106.262 190.051 105.983 190.412L106.277 190.03L106.497 190.169V199.791H105.468V190.659C105.433 190.639 105.393 190.617 105.35 190.593C105.133 190.471 104.828 190.31 104.477 190.149C103.753 189.814 102.922 189.524 102.278 189.524C101.635 189.524 100.804 189.814 100.08 190.149C99.7293 190.31 99.4243 190.471 99.2068 190.593C99.1638 190.617 99.1243 190.639 99.0887 190.659V199.791H98.0597V190.169L98.2801 190.03L98.5742 190.412C98.2947 190.051 98.2807 190.032 98.2801 190.03H98.2805C98.2807 190.03 98.2809 190.03 98.2811 190.03C98.2816 190.03 98.2822 190.03 98.2828 190.03C98.2842 190.029 98.2863 190.027 98.2886 190.027C98.2935 190.023 98.3007 190.019 98.3095 190.014C98.3272 190.003 98.353 189.986 98.3857 189.968C98.4513 189.929 98.5456 189.873 98.6635 189.807C98.8985 189.675 99.2288 189.501 99.6108 189.326C100.352 188.983 101.372 188.599 102.278 188.599Z" fill="#F5F5F5"/>
<path d="M78.0387 138.981V199.863H109.055L77.0097 199.883V138.981H78.0387Z" fill="#F5F5F5"/>
<path d="M353.55 139.34L368.367 130.234L383.184 139.34H368.367H353.55Z" fill="#D9D9D9"/>
<path d="M384.849 139.802H351.885L368.367 129.674L384.849 139.802ZM355.215 138.878H381.519L368.367 130.794L355.215 138.878Z" fill="#F5F5F5"/>
<path d="M384.507 139.721V199.328H383.478V139.721H384.507Z" fill="#F5F5F5"/>
<path d="M377.216 188.599C378.121 188.599 379.142 188.983 379.883 189.326C380.266 189.501 380.595 189.675 380.832 189.807C380.949 189.873 381.044 189.929 381.11 189.968C381.142 189.986 381.167 190.003 381.186 190.014C381.194 190.019 381.2 190.023 381.206 190.027C381.208 190.027 381.21 190.029 381.212 190.03H381.215C381.212 190.032 381.2 190.051 380.92 190.412L381.215 190.03L381.435 190.169V199.791H380.406V190.659C380.371 190.639 380.33 190.617 380.288 190.593C380.07 190.471 379.766 190.31 379.414 190.149C378.692 189.814 377.858 189.524 377.216 189.524C376.574 189.524 375.74 189.814 375.018 190.149C374.666 190.31 374.362 190.471 374.143 190.593C374.102 190.617 374.061 190.639 374.026 190.659V199.791H372.997V190.169L373.217 190.03L373.512 190.412C373.232 190.051 373.219 190.032 373.217 190.03H373.219C373.222 190.029 373.224 190.027 373.226 190.027C373.232 190.023 373.238 190.019 373.246 190.014C373.265 190.003 373.289 189.986 373.322 189.968C373.388 189.929 373.483 189.873 373.6 189.807C373.837 189.675 374.166 189.501 374.549 189.326C375.29 188.983 376.31 188.599 377.216 188.599Z" fill="#F5F5F5"/>
<path d="M353.447 139.668V199.328H384.419V200.253H352.418V139.668H353.447Z" fill="#F5F5F5"/>
<path d="M140.761 175.005L146.524 162.052H165.456H186.859L191.386 175.005H140.761Z" fill="#D0B895"/>
<path d="M187.236 161.59L192.087 175.468H140.002L146.175 161.59H187.236ZM141.521 174.543H190.685L186.481 162.515H146.872L141.521 174.543Z" fill="#F5F5F5"/>
<path d="M190.46 174.817V199.883H189.431V174.816L190.46 174.817Z" fill="#F5F5F5"/>
<path d="M153.798 191.688V184.472H165.856V191.688H153.798Z" fill="#F5F5F5"/>
<path d="M165.959 184.379V191.781H153.695V184.379H165.959ZM153.901 191.596H165.753V184.564H153.901V191.596Z" fill="black"/>
<path d="M159.93 184.472V191.688H159.724V184.472H159.93Z" fill="black"/>
<path d="M165.856 188.388V188.573H153.798V188.388H165.856Z" fill="black"/>
<path d="M185.933 190.263V199.79H184.904V191.188H178.113V199.79H177.084V190.263H185.933Z" fill="#F5F5F5"/>
<path d="M142.852 175.559V199.874H166.296H189.74H141.823V175.559H142.852Z" fill="#F5F5F5"/>
<path d="M299.836 127.494C309.391 120.993 319.232 114.321 333.808 114.513C347.072 114.688 362.59 120.612 374.691 126.405C380.762 129.312 386.016 132.208 389.753 134.376C391.619 135.461 393.109 136.364 394.134 136.998C394.647 137.314 395.042 137.563 395.311 137.734C395.445 137.819 395.548 137.884 395.616 137.929C395.651 137.951 395.678 137.968 395.694 137.98C395.704 137.985 395.71 137.99 395.715 137.993C395.717 137.994 395.719 137.995 395.721 137.996C395.721 137.997 395.723 137.997 395.723 137.997C395.723 137.999 395.702 138.024 395.12 138.747C394.517 139.497 394.517 139.497 394.517 139.497C394.517 139.497 394.517 139.496 394.515 139.496C394.515 139.495 394.513 139.494 394.511 139.493C394.507 139.491 394.502 139.487 394.494 139.482C394.478 139.471 394.453 139.455 394.42 139.434C394.352 139.391 394.253 139.328 394.124 139.245C393.862 139.079 393.474 138.834 392.967 138.522C391.959 137.898 390.485 137.004 388.635 135.93C384.935 133.782 379.733 130.915 373.724 128.038C361.66 122.262 346.516 116.531 333.78 116.363C319.994 116.182 310.677 122.438 301.077 128.969C291.526 135.466 281.692 142.24 267.12 142.262C254.299 142.282 245.295 137.616 236.508 132.841C227.702 128.055 219.135 123.176 206.942 122.28C192.07 121.187 181 124.899 169.772 129.231C158.554 133.56 147.126 138.538 131.791 139.669C114.333 140.956 100.638 137.224 87.2116 133.964C73.8823 130.728 60.7818 127.942 44.2131 130.71L43.8209 130.776C35.0348 132.285 24.2042 135.772 15.5305 138.901C11.2023 140.462 7.42739 141.929 4.73484 143.005C3.38875 143.543 2.3137 143.983 1.57582 144.288C1.20693 144.441 0.922333 144.56 0.730344 144.641C0.634351 144.681 0.561344 144.712 0.512695 144.732C0.488397 144.743 0.470123 144.75 0.458033 144.756C0.452026 144.758 0.4475 144.76 0.444568 144.761L0.440547 144.763C0.440547 144.763 0.432052 144.747 2.5034e-05 143.927C-0.42008 143.13 -0.439247 143.093 -0.439896 143.091C-0.439896 143.091 -0.439315 143.091 -0.438889 143.09C-0.438009 143.09 -0.436708 143.089 -0.435072 143.089C-0.431738 143.087 -0.426818 143.085 -0.420401 143.083C-0.407514 143.077 -0.388454 143.069 -0.363325 143.058C-0.313068 143.037 -0.238529 143.006 -0.140854 142.965C0.0544978 142.883 0.342684 142.762 0.715272 142.608C1.4605 142.299 2.54375 141.856 3.89881 141.314C6.60867 140.231 10.4074 138.756 14.764 137.184C23.4596 134.047 34.4432 130.504 43.4348 128.959C60.6777 125.997 74.2669 128.905 87.7485 132.179C101.238 135.454 114.583 139.082 131.622 137.825C146.555 136.724 157.652 131.895 168.96 127.532C180.259 123.171 191.715 119.305 207.111 120.436C219.855 121.373 228.824 126.502 237.574 131.258C246.343 136.024 254.916 140.431 267.115 140.412C280.91 140.391 290.23 134.028 299.836 127.494Z" fill="#F5F5F5"/>
<path d="M300.563 73.3863C310.233 65.9273 320.222 58.2407 335.039 58.4619C348.51 58.6634 364.255 65.4814 376.514 72.1358C382.667 75.4772 387.993 78.8049 391.78 81.2969C393.673 82.5432 395.184 83.5813 396.221 84.3089C396.739 84.6728 397.141 84.959 397.412 85.1547C397.548 85.2526 397.653 85.3278 397.723 85.3789C397.758 85.4044 397.785 85.4239 397.801 85.4372C397.812 85.4438 397.818 85.4488 397.822 85.4523C397.826 85.454 397.826 85.4553 397.828 85.4562C397.828 85.4568 397.83 85.4573 397.83 85.4573C397.83 85.4577 397.83 85.4579 397.178 86.1731C396.54 86.8714 396.525 86.8882 396.525 86.8882C396.525 86.8882 396.525 86.8879 396.523 86.8877C396.523 86.887 396.521 86.8858 396.519 86.8844C396.515 86.8814 396.509 86.877 396.501 86.871C396.484 86.8588 396.459 86.8405 396.427 86.8161C396.359 86.7673 396.258 86.6942 396.126 86.5987C395.861 86.4076 395.468 86.1265 394.955 85.7678C393.932 85.0504 392.438 84.0235 390.564 82.7894C386.812 80.3205 381.54 77.0254 375.45 73.7195C363.218 67.079 347.884 60.5041 335.004 60.3115C321.074 60.1034 311.649 67.2731 301.902 74.7902C292.238 82.2452 282.253 90.0486 267.445 90.0744C254.416 90.0971 245.273 84.7205 236.376 79.239C227.443 73.7343 218.771 68.1383 206.442 67.1107C191.399 65.857 180.2 70.1121 168.817 75.0926C157.454 80.0645 145.856 85.7929 130.293 87.0941C112.574 88.5756 98.6731 84.2799 85.0707 80.5349C71.4545 76.7861 58.0968 73.5709 41.1439 76.8728C32.2484 78.6053 21.2776 82.609 12.486 86.2053C8.10002 87.9993 4.2745 89.6844 1.54585 90.9207C0.18173 91.5389 -0.907845 92.0445 -1.65557 92.3954C-2.02939 92.5708 -2.31779 92.7075 -2.5123 92.8C-2.60954 92.8464 -2.68329 92.8818 -2.73256 92.9055C-2.75719 92.9173 -2.77578 92.9262 -2.78802 92.9319C-2.79415 92.9349 -2.79872 92.9373 -2.80171 92.9388L-2.80572 92.9404C-2.80654 92.9393 -2.825 92.9086 -3.29266 92.1257C-3.77946 91.3108 -3.77901 91.3106 -3.77901 91.3106C-3.77901 91.3106 -3.77843 91.3103 -3.778 91.3101C-3.7771 91.3095 -3.77568 91.309 -3.77399 91.3082C-3.77059 91.3066 -3.76561 91.3042 -3.75911 91.301C-3.74604 91.2947 -3.72668 91.2855 -3.70122 91.2733C-3.65027 91.2487 -3.57474 91.2126 -3.47573 91.1656C-3.27768 91.0713 -2.98552 90.9327 -2.60777 90.7555C-1.85229 90.4009 -0.754051 89.8912 0.619587 89.2689C3.36653 88.0241 7.21711 86.3279 11.6335 84.5215C20.4464 80.9165 31.5851 76.8417 40.708 75.0647C58.2129 71.6555 72.0091 75.004 85.6733 78.766C99.351 82.5319 112.857 86.6938 130.102 85.2522C145.216 83.9885 156.449 78.4469 167.917 73.4292C179.365 68.4198 190.997 63.9656 206.631 65.2687C219.578 66.3477 228.68 72.2538 237.539 77.7132C246.437 83.196 255.109 88.2459 267.441 88.2244C281.381 88.2002 290.812 80.9075 300.563 73.3863Z" fill="#F5F5F5"/>
<path d="M123.201 111.918C127.806 112.673 133.924 116.712 133.924 116.712L134.614 117.201C134.858 116.899 134.997 116.712 134.997 116.712L140.144 113.836V121.122L134.614 117.201C133.845 118.15 132.037 120.227 130.278 121.122C127.823 122.371 123.201 122.464 123.201 122.464H116.338C116.338 122.464 111.48 121.458 108.832 119.972C106.97 118.926 104.542 116.712 104.542 116.712L111.62 112.877C111.62 112.877 118.733 111.186 123.201 111.918Z" fill="#D9D9D9"/>
<path d="M115.719 112.032C118.058 111.701 120.968 111.459 123.22 111.828C125.541 112.208 128.235 113.414 130.342 114.519C131.396 115.072 132.307 115.601 132.954 115.993C133.277 116.188 133.535 116.349 133.712 116.462C133.8 116.518 133.869 116.562 133.915 116.592C133.938 116.607 133.956 116.618 133.967 116.626C133.973 116.629 133.978 116.633 133.981 116.634C133.982 116.636 133.983 116.636 133.984 116.637C133.985 116.637 133.985 116.637 133.985 116.637L133.985 116.638L133.987 116.639L133.988 116.64L134.593 117.068C134.685 116.954 134.759 116.86 134.812 116.791C134.845 116.749 134.869 116.716 134.886 116.694C134.895 116.683 134.901 116.675 134.905 116.669C134.907 116.666 134.909 116.664 134.91 116.663C134.91 116.662 134.911 116.662 134.911 116.661L134.911 116.661L134.924 116.644L134.942 116.634L140.247 113.67V121.313L134.633 117.332C134.242 117.811 133.624 118.531 132.893 119.244C132.123 119.997 131.223 120.748 130.329 121.203C129.083 121.836 127.297 122.174 125.833 122.353C125.099 122.443 124.442 122.494 123.968 122.522C123.732 122.537 123.541 122.545 123.409 122.55C123.343 122.553 123.291 122.554 123.257 122.555C123.239 122.556 123.226 122.556 123.217 122.556C123.213 122.557 123.209 122.557 123.207 122.557C123.206 122.557 123.205 122.557 123.204 122.557H116.326L116.315 122.554C116.315 122.554 116.314 122.554 116.314 122.554C116.313 122.554 116.312 122.554 116.311 122.554C116.309 122.553 116.305 122.552 116.301 122.551C116.291 122.549 116.277 122.547 116.259 122.543C116.222 122.535 116.169 122.523 116.1 122.508C115.961 122.477 115.76 122.432 115.511 122.373C115.013 122.256 114.322 122.083 113.547 121.864C112 121.426 110.113 120.8 108.777 120.05C107.838 119.523 106.76 118.703 105.919 118.019C105.499 117.676 105.136 117.365 104.879 117.141C104.75 117.029 104.648 116.938 104.578 116.875C104.542 116.844 104.515 116.819 104.497 116.803C104.488 116.794 104.481 116.788 104.476 116.784C104.474 116.782 104.472 116.78 104.471 116.779C104.47 116.778 104.47 116.778 104.469 116.778L104.469 116.777L104.469 116.777L104.377 116.693L111.567 112.798L111.579 112.791L111.593 112.788L111.594 112.788C111.594 112.788 111.594 112.788 111.595 112.788C111.596 112.787 111.597 112.787 111.599 112.787C111.602 112.786 111.607 112.785 111.614 112.783C111.628 112.78 111.648 112.775 111.675 112.769C111.729 112.757 111.808 112.739 111.909 112.716C112.113 112.671 112.41 112.608 112.779 112.534C113.517 112.387 114.548 112.198 115.719 112.032ZM123.183 112.01C120.967 111.647 118.086 111.884 115.751 112.215C114.585 112.38 113.558 112.568 112.823 112.715C112.456 112.788 112.161 112.851 111.958 112.896C111.857 112.918 111.779 112.936 111.726 112.948C111.7 112.954 111.68 112.959 111.666 112.962C111.664 112.963 111.661 112.963 111.66 112.964L104.708 116.73C104.712 116.735 104.717 116.739 104.723 116.744C104.792 116.806 104.894 116.896 105.022 117.008C105.278 117.231 105.639 117.54 106.058 117.881C106.897 118.565 107.963 119.375 108.886 119.893C110.199 120.63 112.064 121.25 113.609 121.687C114.38 121.905 115.068 122.077 115.564 122.194C115.811 122.253 116.011 122.298 116.148 122.328C116.217 122.343 116.27 122.355 116.306 122.363C116.324 122.366 116.338 122.369 116.347 122.371C116.348 122.371 116.349 122.372 116.35 122.372H123.202C123.204 122.372 123.207 122.372 123.212 122.372C123.22 122.371 123.233 122.371 123.25 122.37C123.284 122.37 123.335 122.368 123.4 122.365C123.531 122.36 123.72 122.352 123.955 122.338C124.424 122.31 125.077 122.259 125.805 122.17C127.265 121.991 129.018 121.657 130.228 121.042C131.093 120.601 131.976 119.867 132.742 119.119C133.468 118.409 134.084 117.693 134.472 117.218L133.862 116.786C133.861 116.785 133.86 116.785 133.859 116.784C133.856 116.782 133.852 116.779 133.846 116.775C133.835 116.768 133.817 116.756 133.795 116.742C133.749 116.712 133.681 116.668 133.593 116.613C133.418 116.501 133.161 116.341 132.839 116.146C132.195 115.756 131.288 115.229 130.238 114.678C128.134 113.575 125.466 112.384 123.183 112.01ZM135.07 116.78C135.066 116.785 135.062 116.791 135.056 116.798C135.039 116.821 135.014 116.854 134.981 116.896C134.926 116.967 134.849 117.065 134.755 117.183L140.041 120.931V114.002L135.07 116.78Z" fill="#C8EBF2"/>
<path d="M214.433 139.454C218.293 140.092 223.422 143.504 223.422 143.504L224 143.916C224.204 143.662 224.321 143.504 224.321 143.504L228.634 141.074V147.229L224 143.916C223.354 144.718 221.839 146.473 220.366 147.229C218.308 148.284 214.433 148.363 214.433 148.363H208.681C208.681 148.363 204.609 147.513 202.39 146.257C200.829 145.374 198.795 143.504 198.795 143.504L204.727 140.264C204.727 140.264 210.689 138.835 214.433 139.454Z" fill="#D9D9D9"/>
<path d="M208.16 139.535C210.119 139.255 212.562 139.051 214.451 139.363C216.4 139.685 218.662 140.705 220.427 141.638C221.312 142.106 222.076 142.553 222.617 142.884C222.889 143.049 223.105 143.185 223.253 143.28C223.327 143.328 223.385 143.365 223.424 143.39C223.442 143.403 223.457 143.412 223.467 143.419C223.473 143.422 223.475 143.425 223.479 143.427C223.479 143.427 223.481 143.428 223.481 143.428C223.481 143.429 223.481 143.429 223.481 143.429L223.483 143.429V143.43L223.486 143.431L223.977 143.783C224.049 143.692 224.109 143.617 224.152 143.562C224.179 143.526 224.2 143.499 224.214 143.48C224.22 143.471 224.226 143.464 224.228 143.459C224.231 143.457 224.233 143.455 224.233 143.454C224.235 143.454 224.235 143.453 224.235 143.453V143.452L224.247 143.436L224.265 143.425L228.737 140.907V147.421L224.019 144.049C223.691 144.453 223.177 145.055 222.57 145.652C221.924 146.288 221.168 146.924 220.417 147.31C219.37 147.846 217.869 148.132 216.641 148.283C216.026 148.36 215.474 148.403 215.077 148.427C214.879 148.439 214.719 148.446 214.608 148.45C214.552 148.452 214.511 148.453 214.48 148.454C214.466 148.455 214.455 148.455 214.447 148.455C214.443 148.455 214.441 148.456 214.439 148.456H214.437H208.671L208.658 148.453C208.658 148.453 208.658 148.453 208.656 148.453C208.656 148.453 208.656 148.453 208.654 148.452C208.652 148.452 208.65 148.451 208.646 148.451C208.638 148.449 208.627 148.446 208.611 148.443C208.58 148.436 208.535 148.427 208.477 148.414C208.362 148.388 208.193 148.35 207.983 148.3C207.566 148.2 206.987 148.054 206.337 147.869C205.04 147.5 203.456 146.97 202.335 146.336C201.547 145.889 200.642 145.196 199.938 144.618C199.585 144.328 199.281 144.066 199.065 143.876C198.957 143.781 198.871 143.704 198.812 143.651C198.783 143.624 198.76 143.604 198.745 143.59C198.737 143.583 198.731 143.577 198.727 143.574C198.725 143.572 198.724 143.57 198.723 143.57C198.722 143.569 198.722 143.569 198.722 143.568L198.721 143.568C198.721 143.568 198.721 143.568 198.795 143.503L198.721 143.568L198.63 143.485L198.741 143.425L204.673 140.185L204.686 140.178L204.7 140.174L204.7 140.174C204.7 140.174 204.701 140.174 204.701 140.174C204.702 140.174 204.703 140.174 204.705 140.173C204.708 140.173 204.712 140.171 204.718 140.17C204.729 140.167 204.746 140.163 204.769 140.158C204.814 140.148 204.88 140.133 204.965 140.114C205.136 140.076 205.385 140.022 205.694 139.96C206.314 139.835 207.179 139.676 208.16 139.535ZM214.414 139.545C212.56 139.239 210.148 139.439 208.193 139.718C207.216 139.858 206.355 140.017 205.739 140.141C205.431 140.203 205.185 140.256 205.015 140.293C204.93 140.312 204.864 140.327 204.82 140.337C204.798 140.343 204.781 140.346 204.77 140.349C204.769 140.349 204.768 140.349 204.767 140.35L198.96 143.521C199.018 143.574 199.103 143.65 199.209 143.743C199.423 143.932 199.726 144.193 200.077 144.481C200.779 145.058 201.673 145.742 202.445 146.179C203.543 146.8 205.105 147.324 206.399 147.693C207.045 147.877 207.621 148.022 208.037 148.121C208.245 148.171 208.411 148.209 208.527 148.234C208.584 148.247 208.629 148.257 208.658 148.263C208.675 148.266 208.685 148.269 208.693 148.271H214.435C214.435 148.271 214.439 148.27 214.443 148.27C214.449 148.27 214.46 148.27 214.474 148.269C214.503 148.269 214.546 148.267 214.599 148.265C214.709 148.261 214.867 148.254 215.065 148.242C215.458 148.218 216.003 148.176 216.614 148.1C217.837 147.949 219.304 147.667 220.314 147.149C221.037 146.778 221.775 146.159 222.417 145.527C223.02 144.934 223.533 144.334 223.858 143.933L223.36 143.577C223.358 143.577 223.358 143.576 223.356 143.575C223.354 143.574 223.35 143.571 223.346 143.568C223.335 143.562 223.321 143.552 223.302 143.54C223.263 143.515 223.208 143.478 223.134 143.431C222.988 143.337 222.771 143.201 222.502 143.037C221.963 142.708 221.203 142.263 220.323 141.798C218.561 140.866 216.326 139.861 214.414 139.545ZM224.393 143.571C224.391 143.575 224.387 143.579 224.385 143.584C224.37 143.603 224.348 143.631 224.321 143.667C224.276 143.725 224.216 143.803 224.14 143.898L228.532 147.037V141.241L224.393 143.571Z" fill="#C8EBF2"/>
<path d="M370.199 107.632C373.952 108.257 378.938 111.599 378.938 111.599L379.5 112.004C379.698 111.754 379.811 111.599 379.811 111.599L384.007 109.219V115.249L379.5 112.004C378.873 112.789 377.399 114.508 375.967 115.249C373.964 116.283 370.199 116.36 370.199 116.36H364.605C364.605 116.36 360.646 115.527 358.487 114.297C356.968 113.432 354.991 111.599 354.991 111.599L360.759 108.426C360.759 108.426 366.556 107.026 370.199 107.632Z" fill="#D9D9D9"/>
<path d="M364.097 107.71C366.002 107.436 368.377 107.235 370.217 107.541C372.112 107.857 374.31 108.856 376.029 109.77C376.889 110.228 377.63 110.667 378.158 110.991C378.422 111.153 378.632 111.286 378.776 111.379C378.848 111.426 378.903 111.462 378.943 111.487C378.961 111.499 378.975 111.509 378.984 111.515C378.99 111.518 378.994 111.521 378.996 111.523C378.996 111.523 378.998 111.524 378.998 111.524C378.998 111.524 378.998 111.525 379 111.525V111.525V111.526L379.002 111.527L379.48 111.87C379.548 111.782 379.605 111.71 379.644 111.656C379.671 111.621 379.692 111.594 379.706 111.576C379.712 111.567 379.718 111.56 379.72 111.555C379.723 111.553 379.725 111.551 379.725 111.55C379.725 111.549 379.725 111.549 379.727 111.549V111.548L379.739 111.531L379.757 111.521L384.11 109.051V115.441L379.519 112.136C379.2 112.533 378.7 113.121 378.111 113.705C377.483 114.328 376.749 114.951 376.018 115.329C375 115.855 373.541 116.135 372.345 116.283C371.746 116.358 371.211 116.4 370.824 116.424C370.631 116.435 370.476 116.442 370.367 116.447C370.314 116.449 370.273 116.45 370.244 116.451C370.229 116.451 370.219 116.451 370.211 116.452C370.209 116.452 370.205 116.452 370.203 116.452H364.593L364.58 116.45C364.58 116.45 364.578 116.449 364.578 116.449C364.576 116.448 364.572 116.448 364.57 116.447C364.562 116.445 364.55 116.443 364.535 116.44C364.506 116.433 364.461 116.424 364.405 116.411C364.292 116.386 364.128 116.348 363.926 116.3C363.518 116.202 362.955 116.059 362.323 115.878C361.061 115.515 359.522 114.997 358.431 114.375C357.664 113.938 356.785 113.258 356.1 112.691C355.756 112.408 355.462 112.151 355.252 111.965C355.147 111.872 355.063 111.797 355.005 111.745C354.976 111.719 354.956 111.698 354.939 111.685C354.933 111.678 354.927 111.673 354.923 111.669C354.921 111.667 354.918 111.666 354.918 111.665C354.918 111.665 354.916 111.664 354.916 111.664L354.828 111.581L360.705 108.347L360.718 108.34L360.732 108.336V108.336L360.736 108.335C360.74 108.334 360.744 108.333 360.749 108.332C360.761 108.329 360.777 108.325 360.8 108.32C360.843 108.31 360.907 108.295 360.989 108.277C361.156 108.239 361.399 108.187 361.699 108.126C362.3 108.004 363.142 107.848 364.097 107.71ZM370.18 107.723C368.377 107.423 366.031 107.619 364.13 107.893C363.179 108.03 362.343 108.185 361.745 108.307C361.444 108.367 361.205 108.419 361.041 108.456C360.958 108.475 360.895 108.489 360.851 108.5C360.829 108.505 360.812 108.508 360.802 108.511C360.802 108.511 360.8 108.511 360.8 108.511L355.155 111.617C355.211 111.668 355.293 111.742 355.396 111.833C355.604 112.018 355.898 112.273 356.24 112.555C356.923 113.121 357.791 113.791 358.542 114.219C359.608 114.827 361.127 115.34 362.387 115.701C363.014 115.882 363.574 116.024 363.979 116.121C364.181 116.169 364.344 116.206 364.455 116.232C364.51 116.244 364.554 116.254 364.584 116.26C364.599 116.263 364.609 116.265 364.617 116.267H370.198C370.201 116.267 370.203 116.267 370.207 116.267C370.213 116.267 370.223 116.266 370.238 116.266C370.264 116.265 370.306 116.264 370.359 116.262C370.466 116.258 370.62 116.251 370.812 116.239C371.195 116.216 371.725 116.174 372.318 116.1C373.508 115.952 374.932 115.676 375.915 115.169C376.617 114.806 377.335 114.199 377.959 113.581C378.545 113 379.041 112.413 379.358 112.02L378.873 111.671V111.671C378.871 111.669 378.866 111.667 378.862 111.664C378.852 111.658 378.84 111.648 378.821 111.636C378.784 111.612 378.729 111.576 378.657 111.53C378.512 111.437 378.305 111.305 378.041 111.143C377.516 110.821 376.78 110.385 375.924 109.929C374.209 109.017 372.036 108.032 370.18 107.723ZM379.885 111.666C379.883 111.67 379.881 111.674 379.877 111.679C379.862 111.697 379.842 111.725 379.815 111.76C379.772 111.816 379.712 111.893 379.64 111.986L383.904 115.056V109.387L379.885 111.666Z" fill="#C8EBF2"/>
<path d="M345.938 158.552C350.916 159.372 357.528 163.759 357.528 163.759L358.273 164.29C358.536 163.963 358.686 163.759 358.686 163.759L364.251 160.635V168.549L358.273 164.29C357.441 165.321 355.489 167.577 353.587 168.549C350.932 169.906 345.938 170.007 345.938 170.007H338.519C338.519 170.007 333.267 168.915 330.405 167.299C328.392 166.164 325.768 163.759 325.768 163.759L333.417 159.594C333.417 159.594 341.108 157.757 345.938 158.552Z" fill="#D9D9D9"/>
<path d="M337.85 158.683C340.379 158.323 343.522 158.061 345.956 158.461C348.463 158.874 351.375 160.183 353.651 161.383C354.791 161.984 355.775 162.559 356.474 162.984C356.824 163.197 357.102 163.371 357.293 163.493C357.39 163.554 357.464 163.602 357.513 163.635C357.538 163.651 357.557 163.663 357.569 163.672C357.575 163.676 357.581 163.679 357.583 163.681C357.586 163.682 357.588 163.683 357.588 163.684C357.588 163.684 357.59 163.684 357.59 163.684C357.59 163.684 357.59 163.684 357.563 163.717L357.59 163.684V163.685L357.592 163.687L358.252 164.157C358.353 164.029 358.435 163.925 358.495 163.849C358.53 163.803 358.557 163.768 358.575 163.744C358.584 163.732 358.59 163.723 358.594 163.717C358.598 163.714 358.598 163.711 358.6 163.71C358.6 163.709 358.6 163.709 358.602 163.708V163.708L358.614 163.691L358.633 163.681L364.354 160.468V168.74L358.293 164.422C357.87 164.942 357.201 165.726 356.406 166.504C355.575 167.321 354.604 168.136 353.638 168.629C352.293 169.317 350.362 169.683 348.78 169.879C347.987 169.976 347.277 170.031 346.765 170.062C346.51 170.078 346.304 170.087 346.162 170.092C346.09 170.095 346.034 170.097 345.997 170.098C345.979 170.099 345.964 170.099 345.954 170.099C345.95 170.099 345.946 170.099 345.944 170.099C345.942 170.099 345.942 170.099 345.94 170.099H338.507L338.494 170.097C338.494 170.097 338.492 170.096 338.492 170.096C338.488 170.096 338.484 170.095 338.48 170.094C338.47 170.092 338.455 170.089 338.435 170.084C338.395 170.076 338.338 170.063 338.262 170.047C338.114 170.014 337.895 169.964 337.626 169.9C337.089 169.772 336.342 169.585 335.504 169.347C333.831 168.872 331.794 168.192 330.349 167.378C329.337 166.805 328.172 165.916 327.262 165.172C326.807 164.799 326.416 164.463 326.139 164.219C325.999 164.097 325.887 163.998 325.811 163.93C325.774 163.896 325.745 163.869 325.725 163.851C325.715 163.842 325.708 163.835 325.702 163.831C325.7 163.829 325.698 163.827 325.696 163.825L325.694 163.824L325.603 163.74L333.366 159.514L333.378 159.508L333.393 159.504C333.393 159.504 333.393 159.504 333.393 159.504C333.395 159.504 333.397 159.503 333.397 159.503C333.401 159.502 333.407 159.501 333.415 159.499C333.43 159.495 333.452 159.49 333.481 159.484C333.539 159.47 333.623 159.451 333.734 159.427C333.954 159.378 334.273 159.309 334.673 159.229C335.471 159.069 336.584 158.863 337.85 158.683ZM345.919 158.643C343.522 158.249 340.406 158.506 337.883 158.866C336.622 159.045 335.512 159.25 334.718 159.409C334.321 159.489 334.002 159.558 333.784 159.606C333.673 159.63 333.588 159.65 333.531 159.663C333.504 159.669 333.481 159.674 333.467 159.678C333.465 159.679 333.461 159.679 333.459 159.68L325.933 163.777C325.941 163.784 325.949 163.791 325.957 163.799C326.034 163.867 326.143 163.965 326.281 164.086C326.558 164.329 326.947 164.664 327.4 165.035C328.308 165.778 329.462 166.658 330.46 167.221C331.878 168.022 333.897 168.696 335.566 169.171C336.399 169.408 337.144 169.594 337.679 169.721C337.947 169.785 338.163 169.834 338.311 169.867C338.387 169.884 338.445 169.896 338.482 169.904C338.502 169.909 338.517 169.912 338.527 169.914C338.527 169.914 338.529 169.914 338.529 169.914H345.938C345.94 169.914 345.944 169.914 345.948 169.914C345.958 169.914 345.973 169.914 345.991 169.913C346.026 169.912 346.082 169.91 346.152 169.908C346.294 169.902 346.497 169.893 346.753 169.878C347.261 169.847 347.965 169.792 348.753 169.695C350.331 169.5 352.227 169.138 353.536 168.469C354.472 167.99 355.429 167.191 356.256 166.379C357.044 165.605 357.713 164.823 358.131 164.307L357.466 163.832C357.464 163.832 357.464 163.831 357.462 163.83C357.46 163.828 357.454 163.825 357.448 163.821C357.435 163.813 357.417 163.8 357.392 163.784C357.343 163.752 357.271 163.705 357.174 163.644C356.985 163.523 356.707 163.349 356.359 163.137C355.663 162.714 354.682 162.141 353.548 161.543C351.274 160.344 348.389 159.05 345.919 158.643ZM358.761 163.827C358.756 163.832 358.75 163.84 358.744 163.848C358.726 163.872 358.699 163.908 358.664 163.954C358.604 164.033 358.518 164.14 358.413 164.272L364.148 168.358V160.802L358.761 163.827Z" fill="#C8EBF2"/>
<path d="M250.082 51.3409C252.531 51.7444 255.785 53.903 255.785 53.903L256.151 54.1641C256.28 54.0031 256.355 53.903 256.355 53.903L259.092 52.3658V56.26L256.151 54.1641C255.741 54.6713 254.78 55.7818 253.846 56.26C252.539 56.9277 250.082 56.9774 250.082 56.9774H246.431C246.431 56.9774 243.849 56.4398 242.439 55.6451C241.449 55.0864 240.159 53.903 240.159 53.903L243.923 51.8533C243.923 51.8533 247.705 50.9497 250.082 51.3409Z" fill="#D9D9D9"/>
<path d="M246.096 51.3589C247.339 51.1817 248.895 51.0513 250.101 51.2499C251.344 51.4547 252.782 52.1024 253.904 52.6934C254.465 52.9896 254.951 53.2732 255.295 53.4826C255.468 53.5875 255.605 53.6739 255.698 53.734C255.745 53.764 255.782 53.7877 255.807 53.8038C255.82 53.8117 255.83 53.8178 255.836 53.8219C255.838 53.8241 255.84 53.8258 255.842 53.8269C255.844 53.8274 255.844 53.8276 255.844 53.828V53.8285L255.846 53.8293L255.848 53.8304L256.13 54.0307C256.165 53.9863 256.194 53.9493 256.217 53.9205C256.233 53.8981 256.248 53.8807 256.256 53.8691C256.26 53.8633 256.264 53.8589 256.266 53.8559C256.266 53.8544 256.268 53.8533 256.268 53.8526C256.268 53.8524 256.268 53.852 256.268 53.8519V53.8517L256.28 53.835L256.299 53.8245L259.194 52.1988V56.4512L256.169 54.2962C255.962 54.552 255.643 54.92 255.272 55.2853C254.861 55.6884 254.377 56.0939 253.895 56.3404C253.224 56.6833 252.268 56.8646 251.488 56.9606C251.097 57.0089 250.745 57.0361 250.494 57.0513C250.366 57.0589 250.265 57.0635 250.193 57.0661C250.158 57.0676 250.131 57.0685 250.113 57.069C250.103 57.0694 250.096 57.0694 250.09 57.0696C250.088 57.0696 250.086 57.0698 250.086 57.0698H246.419L246.409 57.0674V57.0672C246.407 57.0672 246.407 57.067 246.407 57.0668C246.405 57.0666 246.402 57.0663 246.4 57.0659C246.396 57.0648 246.388 57.0631 246.378 57.0611C246.359 57.057 246.33 57.0507 246.293 57.0426C246.219 57.0261 246.112 57.0017 245.981 56.9702C245.715 56.9072 245.345 56.8149 244.933 56.6974C244.11 56.4634 243.102 56.1272 242.385 55.7234C241.881 55.4394 241.305 54.9992 240.858 54.6327C240.634 54.449 240.441 54.2829 240.305 54.1626C240.235 54.1025 240.181 54.054 240.144 54.0204C240.124 54.0035 240.109 53.9902 240.101 53.9813L240.085 53.9677L239.994 53.8842L243.869 51.7742L243.882 51.7674L243.896 51.7639V51.7637C243.896 51.7637 243.896 51.7638 243.898 51.7637C243.898 51.7637 243.898 51.7635 243.898 51.7631C243.9 51.7627 243.904 51.762 243.908 51.7613C243.914 51.7594 243.925 51.7568 243.939 51.7537C243.968 51.747 244.011 51.7374 244.065 51.7254C244.174 51.7013 244.332 51.6673 244.528 51.6279C244.921 51.5489 245.47 51.4477 246.096 51.3589ZM250.064 51.4318C248.893 51.2392 247.368 51.365 246.127 51.5417C245.509 51.6299 244.964 51.73 244.573 51.8084C244.377 51.8475 244.221 51.8811 244.114 51.905C244.061 51.9168 244.019 51.9265 243.991 51.9327C243.978 51.9357 243.97 51.9379 243.962 51.9396L240.323 53.9208C240.358 53.9504 240.4 53.9874 240.447 54.0302C240.583 54.1493 240.776 54.314 240.998 54.496C241.443 54.861 242.007 55.292 242.495 55.5667C243.188 55.9574 244.174 56.2876 244.995 56.5209C245.404 56.6373 245.769 56.7288 246.032 56.7914C246.164 56.8226 246.269 56.8467 246.343 56.8628C246.38 56.8707 246.407 56.8768 246.427 56.8809C246.433 56.8826 246.44 56.8839 246.444 56.8848H250.08C250.082 56.8848 250.084 56.8846 250.086 56.8846C250.09 56.8844 250.096 56.8842 250.107 56.884C250.123 56.8835 250.15 56.8827 250.185 56.8813C250.255 56.8787 250.354 56.8742 250.479 56.8667C250.728 56.8517 251.074 56.8248 251.459 56.7773C252.235 56.6817 253.159 56.5041 253.795 56.1796C254.247 55.9476 254.714 55.5589 255.12 55.1605C255.488 54.7988 255.803 54.4336 256.009 54.1811L255.723 53.9769C255.723 53.9767 255.721 53.9763 255.721 53.9758C255.719 53.9749 255.717 53.9734 255.715 53.9714C255.708 53.9673 255.698 53.9614 255.686 53.9534C255.663 53.9377 255.626 53.9146 255.581 53.8848C255.486 53.8254 255.35 53.7397 255.179 53.636C254.838 53.428 254.356 53.1467 253.799 52.8529C252.681 52.2637 251.269 51.6305 250.064 51.4318ZM256.427 53.9706C256.427 53.9714 256.427 53.9723 256.427 53.973C256.416 53.985 256.404 54.003 256.385 54.0257C256.361 54.057 256.33 54.0973 256.291 54.1458L258.989 56.0684V52.5325L256.427 53.9706Z" fill="#C8EBF2"/>
<path d="M91.1409 39.1091C93.2172 39.4215 95.9756 41.0925 95.9756 41.0925L96.2863 41.2947C96.3964 41.1702 96.4592 41.0925 96.4592 41.0925L98.7799 39.9025V42.9175L96.2863 41.2947C95.9398 41.6875 95.1248 42.5473 94.3319 42.9175C93.2246 43.4343 91.1409 43.4728 91.1409 43.4728H88.0464C88.0464 43.4728 85.856 43.0566 84.6622 42.4415C83.8228 42.0088 82.7282 41.0925 82.7282 41.0925L85.9192 39.5059C85.9192 39.5059 89.1264 38.806 91.1409 39.1091Z" fill="#D9D9D9"/>
<path d="M87.7598 39.1024C88.8151 38.9652 90.134 38.864 91.1579 39.0181C92.2136 39.1768 93.4347 39.6791 94.3855 40.1367C94.8625 40.3661 95.2739 40.5859 95.5663 40.7483C95.7124 40.8293 95.8291 40.8961 95.9092 40.9427C95.9491 40.966 95.98 40.9843 96.001 40.9967C96.0114 41.003 96.0195 41.0078 96.0248 41.011C96.0275 41.0127 96.0298 41.0139 96.0312 41.0149C96.0318 41.0152 96.0324 41.0156 96.0326 41.0158L96.0331 41.0162C96.0329 41.0165 96.0306 41.0197 96.0063 41.0519L96.0331 41.0162L96.0361 41.018L96.266 41.1675C96.2924 41.1372 96.3148 41.1118 96.3319 41.0915C96.3465 41.0743 96.3578 41.0609 96.3652 41.0519C96.3689 41.0474 96.3716 41.0439 96.3734 41.0415C96.3743 41.0404 96.3749 41.0397 96.3753 41.0391C96.3755 41.0387 96.3759 41.0386 96.3759 41.0386L96.3891 41.0223L96.4084 41.0125L98.8829 39.7434V43.0988L96.3049 41.4213C96.1269 41.6194 95.8608 41.901 95.5492 42.1803C95.2004 42.493 94.7897 42.8082 94.3793 42.9996C93.8084 43.2662 92.9948 43.4066 92.334 43.481C92.0016 43.5184 91.7042 43.5394 91.49 43.5513C91.383 43.5572 91.2964 43.5607 91.2367 43.5628C91.2066 43.5639 91.1834 43.5646 91.1675 43.565C91.1595 43.5652 91.1535 43.5653 91.1494 43.5653C91.1474 43.5653 91.1459 43.5655 91.1447 43.5655H88.0358L88.0253 43.5635L88.0247 43.5633C88.0245 43.5633 88.0241 43.5633 88.0234 43.5631C88.0224 43.5629 88.0208 43.5628 88.0187 43.5622C88.0144 43.5615 88.008 43.5604 87.9998 43.5587C87.9833 43.5554 87.9588 43.5505 87.9275 43.5443C87.8648 43.5315 87.774 43.5128 87.6617 43.4884C87.4365 43.4396 87.1237 43.3678 86.7735 43.2768C86.0754 43.0957 85.2193 42.8354 84.611 42.5218C84.1834 42.3015 83.6942 41.9598 83.3147 41.676C83.1244 41.5338 82.9604 41.405 82.8439 41.3118C82.7858 41.2652 82.7393 41.2274 82.7074 41.2013C82.6916 41.1882 82.6792 41.1782 82.671 41.1714C82.6669 41.1679 82.6636 41.1651 82.6615 41.1634C82.6605 41.1625 82.6595 41.1616 82.6589 41.1612C82.6587 41.161 82.6585 41.161 82.6583 41.1608L82.658 41.1606L82.5543 41.0735L85.8694 39.4251L85.8816 39.4191L85.8949 39.4162L85.8952 39.416C85.8952 39.416 85.8956 39.4162 85.8958 39.416C85.8962 39.416 85.8968 39.4158 85.8974 39.4156C85.8991 39.4154 85.9015 39.4147 85.9046 39.4141C85.9108 39.4127 85.92 39.4108 85.9322 39.4082C85.9565 39.4032 85.9923 39.3956 86.0384 39.3862C86.1306 39.3675 86.2645 39.3413 86.4312 39.3107C86.7648 39.2497 87.2307 39.1713 87.7598 39.1024ZM91.1239 39.2005C90.1334 39.0516 88.8413 39.1489 87.7895 39.2856C87.2651 39.3538 86.8031 39.4315 86.4724 39.492C86.3071 39.5224 86.1746 39.5483 86.0837 39.5668C86.0382 39.576 86.003 39.5834 85.9793 39.5884C85.9699 39.5904 85.9622 39.5919 85.9567 39.593L82.9038 41.1111C82.9262 41.1294 82.9519 41.1505 82.9809 41.1736C83.096 41.2657 83.2581 41.3932 83.4462 41.534C83.8239 41.8163 84.3017 42.1494 84.7133 42.3614C85.299 42.6631 86.1349 42.9186 86.8307 43.0992C87.1772 43.1893 87.4869 43.2601 87.7098 43.3084C87.8212 43.3326 87.9109 43.3513 87.9726 43.3637C88.0035 43.37 88.0276 43.3746 88.0436 43.3778C88.0492 43.3789 88.0537 43.3798 88.0574 43.3805H91.1402C91.1412 43.3805 91.1424 43.3804 91.1443 43.3804C91.1482 43.3804 91.1539 43.3802 91.1614 43.38C91.1766 43.3796 91.1994 43.3791 91.2286 43.378C91.2871 43.3759 91.3721 43.3724 91.4777 43.3667C91.6886 43.355 91.9814 43.3343 92.3084 43.2975C92.9661 43.2233 93.7482 43.0859 94.2844 42.8356C94.6672 42.6569 95.0605 42.3572 95.404 42.0493C95.7048 41.7794 95.9631 41.5068 96.138 41.3125L95.9182 41.1695L95.9178 41.1693C95.9174 41.1692 95.917 41.1688 95.9164 41.1684C95.9151 41.1677 95.9131 41.1666 95.9106 41.1649C95.9055 41.1619 95.8976 41.1571 95.8874 41.151C95.867 41.1388 95.8365 41.1209 95.7972 41.0979C95.7182 41.0521 95.603 40.986 95.4581 40.9055C95.1685 40.7448 94.7607 40.5271 94.2884 40.2999C93.3409 39.8439 92.1446 39.354 91.1239 39.2005ZM96.529 41.1632C96.5214 41.1727 96.5105 41.1862 96.4961 41.203C96.4794 41.223 96.4578 41.2472 96.4329 41.2761L98.6771 42.7366V40.062L96.529 41.1632Z" fill="#C8EBF2"/>
<path d="M279.259 175.19L304.104 158.353L329.884 175.19H279.259Z" fill="#C3273C"/>
<path d="M331.466 175.652H277.722L304.098 157.777L331.466 175.652ZM280.796 174.727H328.301L304.108 158.928L280.796 174.727Z" fill="#F5F5F5"/>
<path d="M328.943 175.19L328.958 199.606H327.929L327.914 175.19L328.943 175.19Z" fill="#F5F5F5"/>
<path d="M296.412 190.023V182.807H308.469V190.023H296.412Z" fill="#F5F5F5"/>
<path d="M308.572 182.714V190.115H296.309V182.714H308.572ZM296.515 189.93H308.366V182.899H296.515V189.93Z" fill="black"/>
<path d="M302.542 182.807V190.023H302.337V182.807H302.542Z" fill="black"/>
<path d="M308.469 186.723V186.908H296.412V186.723H308.469Z" fill="black"/>
<path d="M326.447 189.855V199.143H325.418V190.402L321.255 188.345L317.092 190.402V199.143H316.063V189.855L321.255 187.291L326.447 189.855Z" fill="#F5F5F5"/>
<path d="M281.523 175.187V199.389H328.443V200.345H280.494V175.187H281.523Z" fill="#F5F5F5"/>
<path d="M89.1077 157.983V150.953H98.5742V157.983H89.1077Z" fill="#F5F5F5"/>
<path d="M98.6771 150.86V158.075H89.0049V150.86H98.6771ZM89.2107 157.89H98.4713V151.045H89.2107V157.89Z" fill="black"/>
<path d="M93.9439 151.045V158.168H93.7381V151.045H93.9439Z" fill="black"/>
<path d="M98.5748 154.758L89.108 154.775L89.1076 154.59L98.5744 154.573L98.5748 154.758Z" fill="black"/>
<path d="M89.3136 180.551V173.522H98.78V180.551H89.3136Z" fill="#F5F5F5"/>
<path d="M98.8828 173.429V180.644H89.2106V173.429H98.8828ZM89.4164 180.459H98.677V173.614H89.4164V180.459Z" fill="black"/>
<path d="M94.1497 173.614V180.736H93.9439V173.614H94.1497Z" fill="black"/>
<path d="M98.7806 177.327L89.3138 177.344L89.3133 177.159L98.7802 177.142L98.7806 177.327Z" fill="black"/>
<path d="M363.84 182.401V175.372H373.306V182.401H363.84Z" fill="#F5F5F5"/>
<path d="M373.409 175.279V182.494H363.737V175.279H373.409ZM363.942 182.309H373.203V175.464H363.942V182.309Z" fill="black"/>
<path d="M368.676 175.464V182.586H368.47V175.464H368.676Z" fill="black"/>
<path d="M373.306 179.177L363.84 179.194V179.009L373.306 178.992V179.177Z" fill="black"/>
<path d="M363.428 158.168V151.138H372.894V158.168H363.428Z" fill="#F5F5F5"/>
<path d="M372.997 151.045V158.26H363.325V151.045H372.997ZM363.531 158.075H372.791V151.23H363.531V158.075Z" fill="black"/>
<path d="M368.264 151.323V158.075H368.058V151.323H368.264Z" fill="black"/>
<path d="M372.894 154.943L363.428 154.96V154.775L372.894 154.758V154.943Z" fill="black"/>
<path d="M24.7893 13.2421C27.5045 13.6846 31.1118 16.052 31.1118 16.052L31.518 16.3385C31.6619 16.1619 31.744 16.052 31.744 16.052L34.7788 14.3661V18.6372L31.518 16.3385C31.0649 16.8948 29.9991 18.1127 28.9621 18.6372C27.5142 19.3694 24.7893 19.424 24.7893 19.424H20.7428C20.7428 19.424 17.8784 18.8344 16.3171 17.9628C15.2194 17.35 13.7881 16.052 13.7881 16.052L17.9609 13.8041C17.9609 13.8041 22.1551 12.8128 24.7893 13.2421Z" fill="#D9D9D9"/>
<path d="M20.3714 13.2709C21.751 13.0765 23.4724 12.9337 24.8076 13.1513C26.1839 13.3756 27.7774 14.0853 29.0203 14.7333C29.6433 15.0581 30.181 15.3689 30.563 15.5986C30.7539 15.7135 30.9062 15.808 31.0106 15.8739C31.0628 15.9069 31.1032 15.9328 31.1303 15.9504C31.1441 15.9591 31.1546 15.9658 31.1616 15.9704C31.1651 15.9727 31.1678 15.9745 31.1696 15.9757C31.1705 15.9762 31.1711 15.9768 31.1717 15.9771L31.1723 15.9775L31.1737 15.9785L31.1752 15.9794L31.497 16.2062C31.5392 16.1535 31.5746 16.1099 31.6008 16.0763C31.6197 16.0518 31.6343 16.0327 31.6442 16.0199C31.6489 16.0136 31.6524 16.0087 31.6549 16.0055C31.6561 16.0039 31.6572 16.0026 31.6578 16.0018C31.658 16.0015 31.6584 16.0009 31.6584 16.0009L31.6586 16.0008L31.6709 15.9841L31.6899 15.9735L34.8817 14.2004V18.8274L31.5378 16.4699C31.3057 16.7507 30.9511 17.1584 30.5346 17.5629C30.0796 18.0048 29.5451 18.4487 29.0125 18.7181C28.2706 19.0932 27.2106 19.2917 26.3465 19.397C25.9127 19.4501 25.5244 19.4799 25.2445 19.4965C25.1045 19.5048 24.9916 19.51 24.9136 19.5128C24.8745 19.5143 24.844 19.5152 24.8234 19.5158C24.8131 19.5161 24.8053 19.5163 24.8 19.5165C24.7973 19.5165 24.795 19.5167 24.7936 19.5167H24.7917H20.7311L20.72 19.5143L20.7193 19.5141C20.7189 19.5141 20.7183 19.5141 20.7177 19.5139C20.7162 19.5137 20.714 19.5132 20.7113 19.5126C20.7058 19.5113 20.6975 19.5097 20.6866 19.5072C20.6652 19.5026 20.6331 19.496 20.5922 19.4871C20.5104 19.4691 20.3918 19.4425 20.2448 19.4079C19.9507 19.3387 19.5423 19.2375 19.0848 19.1088C18.1721 18.852 17.0551 18.484 16.2628 18.0416C15.7058 17.7307 15.0679 17.2483 14.5721 16.8466C14.3235 16.6452 14.1095 16.463 13.9575 16.3312C13.8815 16.2653 13.821 16.2118 13.7794 16.1749C13.7587 16.1564 13.7425 16.1422 13.7316 16.1325C13.7262 16.1276 13.7221 16.1238 13.7193 16.1213L13.7149 16.1173L13.6227 16.0336L17.9081 13.7249L17.9206 13.7182L17.9349 13.7147L17.9357 13.7146C17.9362 13.7144 17.937 13.7143 17.9381 13.714C17.9402 13.7135 17.9433 13.7128 17.9473 13.7119C17.9555 13.71 17.9675 13.7071 17.9833 13.7035C18.0149 13.6963 18.0617 13.6859 18.122 13.6726C18.2424 13.6462 18.4173 13.609 18.6352 13.5657C19.0711 13.4792 19.6799 13.3683 20.3714 13.2709ZM24.7708 13.3334C23.4718 13.1217 21.7792 13.2598 20.4031 13.4537C19.7169 13.5504 19.1125 13.6605 18.6796 13.7464C18.4633 13.7893 18.2898 13.8263 18.1706 13.8524C18.111 13.8655 18.065 13.8759 18.0339 13.8829C18.0198 13.8862 18.0088 13.8887 18.001 13.8905L13.9547 16.0701C13.9929 16.104 14.0419 16.1473 14.1004 16.198C14.2511 16.3287 14.4635 16.5094 14.7099 16.7091C15.2041 17.1095 15.8307 17.5826 16.3713 17.8844C17.1403 18.3138 18.2364 18.6763 19.1463 18.9323C19.5999 19.0599 20.0051 19.1602 20.2968 19.2288C20.4427 19.2632 20.5602 19.2895 20.6411 19.3073C20.6815 19.3162 20.7127 19.3228 20.7339 19.3274C20.7424 19.3291 20.7494 19.3306 20.7545 19.3317H24.7887C24.7899 19.3317 24.7917 19.3315 24.7942 19.3315C24.7994 19.3313 24.807 19.3313 24.8171 19.331C24.837 19.3304 24.8666 19.3295 24.9049 19.328C24.9815 19.3252 25.0926 19.3202 25.2309 19.3121C25.5071 19.2956 25.8907 19.266 26.3189 19.2137C27.1791 19.1088 28.2058 18.9138 28.9117 18.5568C29.4163 18.3017 29.9332 17.8744 30.3835 17.4372C30.7953 17.0372 31.1466 16.6334 31.3758 16.3559L31.0492 16.1258L31.0486 16.1254C31.047 16.1243 31.0443 16.1226 31.041 16.1204C31.0342 16.1159 31.0241 16.1093 31.0106 16.1007C30.9838 16.0834 30.9439 16.0579 30.8922 16.0253C30.7889 15.9601 30.6381 15.8663 30.4485 15.7524C30.0693 15.5243 29.5354 15.2155 28.9172 14.8932C27.6776 14.2468 26.1098 13.5516 24.7708 13.3334ZM31.8166 16.1205C31.8158 16.1218 31.815 16.1231 31.814 16.1245C31.8039 16.1378 31.7887 16.1573 31.7693 16.1823C31.7415 16.218 31.7045 16.2646 31.6594 16.3207L34.6759 18.4472V14.532L31.8166 16.1205Z" fill="#C8EBF2"/>
<path d="M310.151 18.7415C310.937 18.8312 310.966 18.8344 310.968 18.8346V18.8349C310.968 18.8353 310.968 18.836 310.968 18.8368C310.968 18.8386 310.966 18.8416 310.966 18.8455C310.966 18.8534 310.963 18.8656 310.961 18.8821C310.957 18.9147 310.951 18.9637 310.943 19.0273C310.926 19.1546 310.904 19.3411 310.879 19.5741C310.83 20.0407 310.77 20.6926 310.731 21.4326C310.649 22.9295 310.655 24.723 310.957 26.0742C311.544 28.6901 311.571 30.0772 313.499 32.0884C315.217 33.8814 316.859 34.5636 319.699 35.9414C322.5 37.3 324.334 37.7952 327.581 38.8264C328.159 39.0099 328.664 39.1958 329.125 39.3706C329.592 39.548 329.997 39.7069 330.415 39.8521C331.224 40.1343 332.043 40.3507 333.177 40.4406C334.765 40.5664 335.975 40.3792 337.187 40.0564C337.805 39.8917 338.418 39.6934 339.101 39.4757C339.778 39.2598 340.513 39.0287 341.338 38.8134C344.333 38.0318 346.004 37.6234 348.555 36.459C350.266 35.6787 352.134 34.3986 353.599 33.2887C354.326 32.7379 354.943 32.2373 355.377 31.8748C355.596 31.6937 355.766 31.5473 355.884 31.4467C355.941 31.3966 355.987 31.3577 356.015 31.3316C356.03 31.3187 356.042 31.3091 356.048 31.3026L356.059 31.2937L356.415 30.9764L356.89 31.1154C356.89 31.1154 356.89 31.1157 356.892 31.1159C356.896 31.1174 356.906 31.1204 356.923 31.1241C356.954 31.1318 357.005 31.1437 357.075 31.1576C357.215 31.1853 357.431 31.2206 357.707 31.2443C358.258 31.2917 359.053 31.2928 359.987 31.0989C360.909 30.9076 361.273 30.6444 361.405 30.4538C361.516 30.2946 361.58 30.0156 361.345 29.469C361.255 29.2616 361.166 29.2039 361.14 29.1889C361.109 29.1715 361.059 29.1572 360.975 29.1613C360.884 29.1656 360.784 29.1898 360.695 29.2205C360.654 29.2349 360.623 29.2486 360.602 29.2575C360.594 29.2614 360.588 29.2642 360.586 29.2653C360.586 29.2653 360.588 29.2647 360.588 29.2642L360.592 29.2625V29.2621C360.592 29.2621 360.592 29.2618 360.59 29.2588L359.539 28.1533L362.726 24.6956L363.994 25.6402L361.924 27.8871C361.95 27.9004 361.977 27.9143 362.004 27.9291C362.393 28.145 362.687 28.4868 362.881 28.9341C363.208 29.6972 363.302 30.5203 362.8 31.2389C362.323 31.9266 361.434 32.3178 360.358 32.5409C359.222 32.7764 358.246 32.7775 357.551 32.7176C357.287 32.695 357.063 32.6638 356.884 32.633C356.779 32.7237 356.649 32.8338 356.497 32.9596C356.048 33.3343 355.412 33.8512 354.661 34.4202C353.169 35.5496 351.183 36.9193 349.3 37.7788C346.592 39.0147 344.777 39.4568 341.797 40.2347C341.021 40.4371 340.326 40.6556 339.651 40.8705C338.984 41.0834 338.323 41.2971 337.655 41.4753C336.292 41.8384 334.87 42.0604 333.033 41.9146C331.709 41.8099 330.738 41.552 329.82 41.2322C329.372 41.0764 328.929 40.9025 328.485 40.7342C328.034 40.5632 327.567 40.3906 327.034 40.2218C323.834 39.2062 321.858 38.6699 318.917 37.2438C316.164 35.9083 314.211 35.0981 312.252 33.0545C309.98 30.6853 309.9 28.8435 309.344 26.3665C308.998 24.8268 309.004 22.8809 309.087 21.3612C309.128 20.5927 309.19 19.9171 309.241 19.433C309.266 19.1908 309.288 18.996 309.307 18.8612C309.315 18.7939 309.321 18.7413 309.327 18.7052C309.329 18.6873 309.332 18.6736 309.332 18.664C309.334 18.6592 309.334 18.6553 309.334 18.6527C309.334 18.6514 309.334 18.6505 309.334 18.6497C309.334 18.6494 309.334 18.6488 309.334 18.6488V18.6484C309.334 18.6484 309.344 18.6494 310.151 18.7415Z" fill="#F5F5F5"/>
<path d="M346.771 17.3254C346.773 17.3267 346.79 17.3551 347.148 17.9836C347.52 18.6358 347.524 18.6419 347.524 18.6419C347.524 18.6421 347.524 18.6422 347.522 18.6424C347.522 18.6428 347.522 18.6432 347.52 18.6437C347.518 18.6448 347.514 18.6467 347.51 18.6487C347.5 18.653 347.487 18.6593 347.469 18.6674C347.434 18.6835 347.382 18.7068 347.314 18.7366C347.183 18.7962 346.989 18.8813 346.748 18.9852C346.267 19.1928 345.59 19.4754 344.808 19.7766C343.26 20.3734 341.246 21.0638 339.517 21.3668C337.539 21.7131 335.113 21.9038 333.201 22.0085C332.242 22.0613 331.403 22.0925 330.804 22.1108C330.505 22.1199 330.265 22.1258 330.1 22.1295C330.018 22.1312 329.952 22.1325 329.909 22.1332C329.886 22.1336 329.869 22.134 329.859 22.1341C329.853 22.1341 329.849 22.1343 329.845 22.1343H329.841L329.834 22.1345H324.054C321.638 22.1345 320.15 22.2466 317.65 22.1336C316.131 22.065 314.221 21.8735 312.702 21.7013C311.941 21.6149 311.274 21.5325 310.797 21.4721C310.556 21.4417 310.365 21.4167 310.233 21.3994C310.167 21.3907 310.116 21.3838 310.081 21.3792C310.064 21.3768 310.052 21.3751 310.041 21.374C310.037 21.3733 310.033 21.3727 310.031 21.3725C310.031 21.3723 310.029 21.3722 310.029 21.3722H310.027C310.027 21.3722 310.029 21.3696 310.151 20.6403C310.272 19.9126 310.274 19.9087 310.274 19.9087C310.274 19.9087 310.276 19.9089 310.276 19.9091C310.278 19.9092 310.282 19.9096 310.286 19.9102C310.295 19.9115 310.307 19.9133 310.323 19.9155C310.358 19.92 310.408 19.9265 310.472 19.935C310.601 19.952 310.791 19.9766 311.025 20.0066C311.498 20.0663 312.157 20.1475 312.91 20.233C314.419 20.4043 316.279 20.5898 317.732 20.6555C320.189 20.7665 321.502 20.6546 324.054 20.6546H329.818C329.82 20.6546 329.824 20.6544 329.83 20.6544C329.841 20.6542 329.855 20.654 329.876 20.6537C329.917 20.6529 329.981 20.6516 330.059 20.65C330.221 20.6464 330.454 20.6407 330.748 20.6318C331.335 20.6139 332.16 20.583 333.1 20.5314C334.994 20.4276 337.334 20.2413 339.202 19.9141C340.752 19.6425 342.635 19.0043 344.16 18.4164C344.915 18.1252 345.571 17.8514 346.036 17.6506C346.269 17.5503 346.454 17.4684 346.582 17.4118C346.644 17.3835 346.693 17.3616 346.726 17.3469C346.74 17.3396 346.753 17.3339 346.761 17.3303C346.765 17.3285 346.769 17.3272 346.769 17.3263C346.771 17.326 346.771 17.3256 346.771 17.3254Z" fill="#F5F5F5"/>
<path d="M347.498 17.6741C347.498 17.6743 347.498 17.6747 347.498 17.6753C347.5 17.6767 347.502 17.679 347.504 17.6822C347.508 17.6885 347.514 17.6984 347.524 17.7116C347.543 17.7383 347.57 17.7785 347.607 17.8309C347.683 17.9357 347.794 18.0889 347.936 18.2787C348.222 18.6589 348.636 19.1839 349.142 19.7609C350.167 20.9295 351.519 22.2533 352.926 23.0493C354.237 23.7908 355.095 24.0903 356.684 24.7007C357.6 25.0524 358.839 25.4507 359.86 25.7646C360.368 25.9206 360.819 26.0541 361.142 26.1487C361.302 26.1958 361.432 26.2334 361.52 26.2589C361.526 26.2606 361.531 26.2621 361.537 26.2635H362.23V27.7435H361.282L361.16 27.7091C361.16 27.7091 361.158 27.7087 361.158 27.7083C361.156 27.708 361.154 27.7072 361.15 27.7065C361.144 27.7046 361.135 27.7019 361.123 27.6985C361.098 27.6915 361.063 27.6815 361.018 27.6684C360.928 27.6421 360.794 27.6038 360.631 27.5557C360.302 27.4595 359.845 27.3237 359.329 27.165C358.3 26.8492 357.013 26.4361 356.038 26.0615C354.48 25.4631 353.492 25.1179 352.05 24.3017C350.399 23.3686 348.907 21.8841 347.85 20.677C347.312 20.0662 346.876 19.5114 346.574 19.1086C346.421 18.9072 346.302 18.7431 346.222 18.6286C346.181 18.5714 346.148 18.5263 346.127 18.4951C346.117 18.4796 346.109 18.4675 346.102 18.459C346.098 18.4548 346.096 18.4515 346.094 18.4491C346.094 18.4479 346.094 18.4469 346.092 18.4462C346.092 18.4459 346.092 18.4455 346.092 18.4453V18.4449C346.092 18.4448 346.092 18.4446 346.796 18.0594L347.498 17.6741Z" fill="#F5F5F5"/>
<path d="M296.424 44.2095C297.247 44.2221 297.247 44.2223 297.247 44.2227C297.247 44.2227 297.247 44.223 297.247 44.2232V44.2289C297.247 44.2325 297.247 44.2373 297.247 44.2432C297.245 44.255 297.245 44.2717 297.245 44.2928C297.243 44.3349 297.241 44.3953 297.235 44.4715C297.227 44.6241 297.21 44.8411 297.179 45.1069C297.118 45.6373 297.003 46.3684 296.782 47.1705C296.352 48.7422 295.482 50.7362 293.671 51.9312C292.171 52.9211 289.728 53.5421 287.783 53.9169C286.787 54.1088 285.879 54.2436 285.221 54.3306C284.892 54.3742 284.622 54.4059 284.435 54.4268C284.433 54.427 284.431 54.4271 284.429 54.4275L284.159 54.6667L283.002 53.6119L283.68 53.0136L283.966 52.9866V52.9864L283.968 52.9862C283.972 52.9859 283.976 52.9855 283.98 52.985C283.992 52.9838 284.009 52.9822 284.031 52.98C284.077 52.9751 284.145 52.9681 284.233 52.9581C284.408 52.9385 284.665 52.9082 284.982 52.8664C285.614 52.7828 286.487 52.6533 287.437 52.4699C289.386 52.0942 291.51 51.5213 292.697 50.738C294.031 49.8571 294.78 48.2886 295.183 46.8168C295.381 46.0972 295.486 45.4364 295.541 44.9552C295.568 44.7153 295.585 44.5216 295.593 44.3899C295.595 44.324 295.599 44.2739 295.599 44.241L295.601 44.2053V34.8358C295.599 34.8321 295.599 34.8282 295.599 34.8244C295.589 34.7752 295.576 34.7034 295.56 34.6114C295.527 34.4272 295.484 34.1614 295.434 33.8308C295.336 33.1702 295.216 32.2482 295.138 31.2015C294.982 29.1322 294.971 26.4848 295.632 24.4118C296.276 22.3948 297.844 20.0289 299.198 18.214C299.886 17.2958 300.532 16.4986 301.007 15.9309C301.244 15.6468 301.439 15.4197 301.577 15.263C301.645 15.1847 301.699 15.124 301.734 15.0825C301.752 15.0618 301.767 15.0457 301.777 15.0348C301.781 15.0294 301.785 15.0251 301.789 15.0222C301.789 15.0207 301.791 15.0196 301.791 15.0187C301.791 15.0184 301.791 15.0181 301.791 15.0179L301.793 15.0175C301.793 15.0177 301.81 15.03 302.433 15.4823L301.793 15.0175L301.8 15.009L301.808 15.0007L302.433 15.4823C301.81 15.0026 301.808 15.0008 301.808 15.0007V15.0001C301.81 14.9999 301.81 14.9996 301.81 14.9992C301.81 14.9984 301.812 14.9974 301.812 14.996C301.816 14.9932 301.82 14.9892 301.824 14.9841C301.834 14.9737 301.849 14.9587 301.867 14.9393C301.904 14.9005 301.96 14.844 302.032 14.7716C302.174 14.6269 302.382 14.4186 302.645 14.1623C303.172 13.6499 303.921 12.9437 304.816 12.1666C306.59 10.6227 308.982 8.75704 311.346 7.59434C315.952 5.32964 319.244 4.52393 324.797 3.64901C328.408 3.07974 333.121 3.08347 336.891 3.22248C338.784 3.29231 340.455 3.39698 341.653 3.48426C342.252 3.5279 342.734 3.56724 343.065 3.59571C343.232 3.60994 343.359 3.6215 343.448 3.62949C343.491 3.63351 343.526 3.63658 343.548 3.63871C343.559 3.63978 343.567 3.64069 343.573 3.64124C343.577 3.64152 343.579 3.64163 343.581 3.64178C343.581 3.64185 343.581 3.64193 343.583 3.64196C343.583 3.64194 343.583 3.64198 343.583 3.64196C343.583 3.64348 343.579 3.6762 343.495 4.37778C343.411 5.08846 343.408 5.11275 343.408 5.11359C343.406 5.11357 343.406 5.11346 343.406 5.1134C343.404 5.11329 343.402 5.11311 343.4 5.11286C343.396 5.11237 343.388 5.11168 343.378 5.1107C343.355 5.1087 343.324 5.10569 343.281 5.10184C343.197 5.09413 343.071 5.0829 342.908 5.06897C342.583 5.04109 342.11 5.00233 341.519 4.9593C340.338 4.87323 338.69 4.77 336.823 4.70115C333.072 4.56281 328.507 4.56655 325.081 5.10672C319.631 5.96554 316.528 6.73278 312.136 8.89272C309.969 9.95808 307.706 11.7118 305.961 13.2303C305.094 13.9842 304.366 14.6699 303.855 15.1667C303.6 15.415 303.399 15.6157 303.263 15.7537C303.195 15.8226 303.143 15.8759 303.108 15.9115C303.092 15.9294 303.077 15.9429 303.069 15.9516C303.069 15.9531 303.067 15.9544 303.065 15.9556C303.065 15.9571 303.063 15.9587 303.061 15.9605C303.053 15.97 303.04 15.9846 303.024 16.0039C302.989 16.0424 302.938 16.1 302.874 16.1751C302.742 16.3253 302.553 16.545 302.322 16.8208C301.859 17.3728 301.232 18.1478 300.567 19.0387C299.219 20.842 297.782 23.043 297.214 24.82C296.636 26.6324 296.626 29.0634 296.78 31.1012C296.856 32.1081 296.97 32.997 297.066 33.6338C297.114 33.9518 297.155 34.2061 297.186 34.3802C297.202 34.4671 297.214 34.5339 297.223 34.5785C297.227 34.6007 297.229 34.6175 297.231 34.6283C297.233 34.6338 297.233 34.6377 297.233 34.6403C297.233 34.6416 297.235 34.6425 297.235 34.6431V34.6434L297.247 34.7074V44.2221L296.424 44.2095Z" fill="#F5F5F5"/>
<path d="M345.096 3.38363C346.288 3.36384 347.794 3.36319 348.979 3.44488C352.943 3.71819 355.595 3.90677 359.055 5.41149C361.761 6.58886 362.825 7.71722 364.632 9.29974C368.702 12.8675 369.546 15.5668 371.359 19.6353C373.088 23.5114 374.141 25.8908 374.129 30.0697C374.123 32.1746 373.413 34.7728 372.734 36.7958C372.392 37.8179 372.049 38.7129 371.791 39.3526C371.664 39.6728 371.557 39.9296 371.481 40.107C371.443 40.1956 371.413 40.2644 371.392 40.3116C371.382 40.3351 371.374 40.3534 371.369 40.3658C371.365 40.3719 371.363 40.3767 371.363 40.38C371.361 40.3817 371.361 40.3832 371.361 40.3841L371.359 40.3854L370.596 40.1109L371.359 40.3858L371.349 40.4102L371.336 40.4339C370.678 41.6546 369.665 43.5129 368.77 45.1199C368.324 45.9229 367.904 46.6664 367.57 47.2373C367.406 47.5222 367.258 47.7682 367.14 47.9588C367.046 48.1097 366.941 48.2712 366.85 48.382C366.848 48.3852 366.846 48.3891 366.844 48.3937C366.828 48.4264 366.803 48.4784 366.772 48.5531C366.712 48.7021 366.638 48.9074 366.554 49.1629C366.385 49.6718 366.186 50.342 365.98 51.0768C365.568 52.5447 365.134 54.2407 364.86 55.3543C364.648 56.216 364.908 57.1615 365.667 58.1089C366.43 59.0603 367.675 59.9756 369.314 60.71C369.783 60.9205 370.472 61.1436 371.071 61.3199C371.365 61.4063 371.627 61.4785 371.816 61.529C371.909 61.5543 371.985 61.5739 372.036 61.5872C372.061 61.5939 372.081 61.5991 372.094 61.6024C372.102 61.6041 372.106 61.6052 372.11 61.6059C372.11 61.6065 372.112 61.6069 372.112 61.6069V61.607C372.112 61.6085 372.102 61.6403 371.892 62.3198C371.682 62.9976 371.672 63.0307 371.67 63.0322C371.67 63.0322 371.67 63.032 371.668 63.0318C371.668 63.0318 371.666 63.0311 371.664 63.0307C371.66 63.0296 371.653 63.0281 371.645 63.0261C371.631 63.0222 371.608 63.0167 371.581 63.0095C371.526 62.995 371.446 62.9739 371.345 62.9473C371.145 62.894 370.869 62.818 370.559 62.7266C369.949 62.5474 369.163 62.2967 368.579 62.0346C366.764 61.2215 365.288 60.1661 364.333 58.9746C363.374 57.779 362.915 56.4095 363.253 55.035C363.529 53.9127 363.967 52.2014 364.383 50.7149C364.591 49.9728 364.796 49.2792 364.975 48.7405C365.064 48.4721 365.15 48.2325 365.229 48.0411C365.268 47.9458 365.309 47.8537 365.35 47.7715C365.387 47.7013 365.447 47.5925 365.533 47.4943L365.572 47.4393C365.599 47.3986 365.642 47.3331 365.704 47.2354C365.811 47.0627 365.949 46.8307 366.113 46.5508C366.439 45.9917 366.852 45.2575 367.299 44.4572C368.184 42.8684 369.184 41.0305 369.842 39.8129C369.847 39.8025 369.853 39.7888 369.859 39.772C369.879 39.7283 369.906 39.663 369.943 39.5783C370.015 39.4087 370.118 39.1608 370.244 38.8503C370.493 38.229 370.826 37.3595 371.157 36.3683C371.83 34.3651 372.477 31.9415 372.483 30.0657C372.493 26.1957 371.553 24.047 369.832 20.186C367.988 16.0535 367.258 13.6697 363.481 10.3595C361.625 8.73319 360.757 7.7961 358.337 6.74364C355.188 5.37351 352.819 5.19397 348.854 4.92046C347.751 4.84443 346.31 4.84375 345.127 4.86337C344.54 4.87314 344.024 4.88768 343.653 4.89987C343.468 4.90598 343.32 4.91147 343.219 4.91541C343.168 4.91737 343.129 4.91902 343.104 4.92011C343.09 4.92065 343.081 4.92109 343.073 4.92137C343.071 4.92152 343.069 4.92167 343.067 4.92174H343.065L342.985 3.4436C342.987 3.44359 342.987 3.44344 342.987 3.44344C342.989 3.44335 342.993 3.44322 342.995 3.44307C343.003 3.44275 343.013 3.44238 343.028 3.44181C343.055 3.44066 343.096 3.43896 343.147 3.43693C343.252 3.43286 343.404 3.42725 343.594 3.42104C343.97 3.40859 344.497 3.39358 345.096 3.38363Z" fill="#F5F5F5"/>
<path d="M322.679 38.555V38.5552L324.251 38.1155V38.1159V38.1168L324.255 38.1262C324.258 38.1321 324.26 38.1401 324.262 38.1497C324.27 38.1691 324.278 38.1965 324.288 38.2307C324.309 38.2992 324.338 38.3959 324.369 38.5151C324.432 38.7522 324.507 39.0835 324.558 39.4587C324.653 40.1676 324.686 41.2024 324.188 42.0245C323.943 42.431 323.558 42.7978 323.173 43.1047C322.782 43.4184 322.344 43.7055 321.942 43.9457C321.539 44.1869 321.162 44.3878 320.887 44.5284C320.747 44.5989 320.634 44.6545 320.553 44.693C320.514 44.7125 320.481 44.7274 320.459 44.738C320.448 44.7432 320.44 44.7472 320.434 44.7502C320.43 44.7517 320.428 44.7528 320.426 44.7535L320.422 44.755C320.422 44.7543 320.407 44.7298 320.049 44.0959L320.422 44.7552L320.247 44.8358H319.224V43.3559H319.843C319.905 43.3252 319.985 43.2865 320.076 43.2405C320.327 43.1123 320.669 42.9302 321.029 42.714C321.393 42.4966 321.763 42.2517 322.08 41.999C322.403 41.7395 322.628 41.5054 322.743 41.3164C322.98 40.9249 323.013 40.2921 322.924 39.6367C322.883 39.3299 322.819 39.0551 322.768 38.8566C322.741 38.7578 322.718 38.6793 322.702 38.627C322.694 38.6009 322.687 38.5815 322.683 38.5693C322.681 38.5632 322.681 38.5587 322.679 38.5563C322.679 38.5558 322.679 38.555 322.679 38.555Z" fill="#F5F5F5"/>
<path d="M341.165 40.6239L340.215 43.6L340.208 43.6198C340.208 43.6206 340.206 43.6215 340.206 43.6224C340.204 43.6276 340.202 43.6367 340.198 43.6493C340.188 43.6746 340.176 43.7138 340.161 43.764C340.13 43.8655 340.095 44.0046 340.073 44.1572C340.017 44.5095 340.06 44.7426 340.126 44.8373C340.157 44.8819 340.243 44.9686 340.414 45.0857C340.577 45.196 340.77 45.3049 340.966 45.4035C341.159 45.5012 341.344 45.5826 341.48 45.6398C341.548 45.6681 341.602 45.6901 341.639 45.7045C341.657 45.7117 341.672 45.7171 341.68 45.7204C341.684 45.7221 341.688 45.7234 341.69 45.7241C341.69 45.7243 341.69 45.7243 341.69 45.7245C341.69 45.7256 341.676 45.7535 341.375 46.4078C341.075 47.0596 341.06 47.0899 341.058 47.0912C341.058 47.0912 341.058 47.091 341.058 47.0908C341.058 47.0908 341.056 47.0906 341.056 47.0905C341.056 47.0899 341.054 47.0894 341.052 47.0886C341.048 47.0871 341.042 47.0849 341.036 47.0823C341.021 47.077 341.003 47.0696 340.978 47.0601C340.931 47.0414 340.865 47.0146 340.783 46.9806C340.622 46.9127 340.4 46.8148 340.161 46.6951C339.927 46.5764 339.661 46.4295 339.416 46.2624C339.182 46.1019 338.918 45.8895 338.735 45.6288C338.336 45.063 338.379 44.3676 338.441 43.9563C338.476 43.7273 338.527 43.5261 338.57 43.3827C338.591 43.3102 338.612 43.2508 338.626 43.2081L338.644 43.1566L339.583 40.2158L341.165 40.6239ZM340.208 43.6184C340.208 43.6185 340.208 43.6187 340.208 43.6191V43.6198C340.208 43.6189 340.208 43.6185 340.208 43.6184Z" fill="#F5F5F5"/>
<path d="M341.781 24.8466C341.781 24.847 341.781 24.8475 341.783 24.8483C341.785 24.8498 341.787 24.8524 341.789 24.8557C341.797 24.8623 341.807 24.8727 341.822 24.886C341.851 24.9128 341.892 24.9519 341.947 24.9998C342.056 25.096 342.213 25.2264 342.402 25.3627C342.787 25.6413 343.273 25.9209 343.738 26.0123C344.059 26.0751 344.509 26.0772 344.9 26.0596C345.094 26.0509 345.263 26.038 345.384 26.0272C345.446 26.0219 345.493 26.0171 345.528 26.0135C345.545 26.0119 345.557 26.0104 345.565 26.0095C345.569 26.0091 345.571 26.0087 345.573 26.0085C345.575 26.0084 345.575 26.0084 345.575 26.0084H345.578L345.596 26.006H348.385V26.5609H345.635C345.627 26.5619 345.612 26.5633 345.598 26.5648C345.561 26.5687 345.51 26.5737 345.446 26.5794C345.316 26.5909 345.135 26.6048 344.931 26.614C344.534 26.632 344.011 26.6342 343.606 26.5546C342.997 26.4351 342.423 26.0894 342.015 25.7953C341.807 25.6454 341.637 25.5026 341.515 25.3972C341.456 25.3442 341.408 25.3004 341.375 25.2695C341.359 25.2542 341.346 25.2419 341.338 25.2333C341.332 25.229 341.33 25.2255 341.328 25.2231C341.326 25.222 341.324 25.221 341.324 25.2203C341.324 25.2199 341.324 25.2194 341.324 25.2194V25.219H341.322L341.781 24.8464V24.8466Z" fill="#F5F5F5"/>
<path d="M320.979 23.711C320.983 23.7123 320.99 23.7141 320.998 23.7165C321.016 23.7219 321.043 23.7298 321.078 23.74C321.15 23.7604 321.255 23.7894 321.385 23.8238C321.646 23.893 322.012 23.984 322.43 24.0708C323.274 24.2465 324.295 24.3986 325.089 24.3394C325.626 24.2994 326.293 24.1459 326.838 23.9966C327.108 23.9228 327.342 23.8514 327.509 23.7987C327.593 23.7722 327.659 23.7506 327.705 23.7356C327.727 23.728 327.746 23.7223 327.756 23.7184C327.762 23.7163 327.766 23.7149 327.77 23.7139C327.77 23.7134 327.772 23.713 327.772 23.7128C327.772 23.713 327.777 23.721 327.884 23.9718C327.986 24.2145 327.993 24.2299 327.995 24.231H327.993L327.989 24.2328C327.984 24.2339 327.98 24.2356 327.974 24.2378C327.962 24.2421 327.941 24.2484 327.919 24.2563C327.869 24.2722 327.801 24.295 327.715 24.3224C327.54 24.3771 327.297 24.4509 327.017 24.5275C326.464 24.6792 325.745 24.8476 325.14 24.8927C324.245 24.9593 323.144 24.7893 322.29 24.6113C321.858 24.5214 321.481 24.4276 321.212 24.3562C321.076 24.3205 320.967 24.2906 320.893 24.2693C320.856 24.2585 320.827 24.2499 320.806 24.2441C320.796 24.2412 320.788 24.2389 320.784 24.2375C320.78 24.2365 320.778 24.236 320.778 24.2356C320.776 24.2354 320.776 24.2352 320.776 24.2351L320.769 24.2328L320.763 24.231L317.462 23.0938L317.685 22.5757L320.979 23.711Z" fill="#F5F5F5"/>
<path d="M319.07 23.5775L317.419 24.8282L317.022 24.404L318.67 23.1533L319.07 23.5775Z" fill="#F5F5F5"/>
<path d="M326.974 26.0333L326.437 26.3063L325.435 24.7146L325.972 24.4414L326.974 26.0333Z" fill="#F5F5F5"/>
<path d="M323.42 24.5781V25.8666H322.803V24.5781H323.42Z" fill="#F5F5F5"/>
<path d="M321.757 24.3543L321.403 25.4156L320.813 25.2562L321.167 24.1951L321.757 24.3543Z" fill="#F5F5F5"/>
<path d="M342.155 25.8896L340.387 26.6475L340.122 26.1466L341.89 25.3887L342.155 25.8896Z" fill="#F5F5F5"/>
<path d="M347.105 26.3213V27.7614H346.487V26.3213H347.105Z" fill="#F5F5F5"/>
<path d="M343.215 26.3879L342.038 27.2216L341.655 26.7854L342.834 25.9517L343.215 26.3879Z" fill="#F5F5F5"/>
<path d="M345.337 26.3213V27.5718H344.719V26.3213H345.337Z" fill="#F5F5F5"/>
<path d="M333.059 28.0697L329.96 29.8915L330.872 30.7114L330.433 31.1034L328.989 29.8007L332.722 27.6052L333.059 28.0697Z" fill="#F5F5F5"/>
<path d="M336.562 33.2733L336.29 33.7713L334.327 32.9022L331.892 33.3149L331.839 33.3242L331.783 33.3157L329.085 32.8948L326.826 33.314L326.702 32.7703L329.077 32.3304L331.833 32.7601L334.415 32.323L336.562 33.2733Z" fill="#F5F5F5"/>
<path d="M329.633 33.5869C329.633 33.5871 329.633 33.5875 329.635 33.588C329.637 33.5889 329.639 33.5904 329.643 33.5925C329.651 33.5967 329.664 33.603 329.68 33.6113C329.711 33.6278 329.76 33.6517 329.82 33.6807C329.944 33.7384 330.114 33.8157 330.314 33.8927C330.721 34.0505 331.203 34.192 331.596 34.192C331.987 34.192 332.469 34.0505 332.876 33.8927C333.076 33.8157 333.246 33.7384 333.37 33.6807C333.43 33.6517 333.479 33.6278 333.51 33.6113C333.526 33.603 333.539 33.5967 333.547 33.5925C333.551 33.5904 333.555 33.5889 333.555 33.588C333.557 33.5875 333.557 33.5871 333.557 33.5869H333.559C333.559 33.5878 333.568 33.6023 333.716 33.8254C333.862 34.0472 333.872 34.0627 333.874 34.0638V34.064C333.872 34.0642 333.872 34.0646 333.872 34.0647C333.872 34.0651 333.87 34.0659 333.868 34.0664C333.866 34.0679 333.862 34.0701 333.858 34.0727C333.847 34.0779 333.833 34.0853 333.814 34.0947C333.777 34.1134 333.724 34.1399 333.658 34.1715C333.524 34.2344 333.339 34.3182 333.121 34.4024C332.697 34.5666 332.119 34.747 331.596 34.747C331.071 34.747 330.493 34.5666 330.069 34.4024C329.853 34.3182 329.666 34.2344 329.532 34.1715C329.466 34.1399 329.413 34.1134 329.376 34.0947C329.357 34.0853 329.343 34.0779 329.332 34.0727C329.328 34.0701 329.324 34.0679 329.322 34.0664C329.32 34.0659 329.318 34.0651 329.318 34.0647C329.318 34.0646 329.318 34.0642 329.318 34.0642L329.316 34.064V34.0638L329.633 33.5869Z" fill="#F5F5F5"/>
<path d="M307.79 22.4296C308.22 22.3127 308.733 22.324 309.058 22.3432C309.235 22.3539 309.393 22.3696 309.506 22.3828C309.562 22.3894 309.609 22.3957 309.642 22.4002C309.659 22.4024 309.671 22.4044 309.681 22.4057C309.687 22.4065 309.69 22.407 309.694 22.4074C309.696 22.4076 309.696 22.4078 309.698 22.4079L309.7 22.4083C309.7 22.4085 309.698 22.4187 309.562 23.1377C309.428 23.8368 309.424 23.866 309.424 23.8673V23.8675L309.42 23.8668C309.414 23.866 309.406 23.8649 309.395 23.8633C309.373 23.8603 309.338 23.8557 309.294 23.8505C309.206 23.8401 309.082 23.8281 308.949 23.82C308.644 23.8018 308.391 23.813 308.27 23.8461C308.016 23.9147 307.895 23.9915 307.825 24.0521C307.761 24.1102 307.7 24.1935 307.638 24.3439C307.638 24.3542 307.642 24.3744 307.65 24.4066C307.673 24.4865 307.72 24.5888 307.788 24.7024C307.854 24.8128 307.928 24.9133 307.988 24.9875C308.002 25.0061 308.016 25.0224 308.029 25.0365L309.358 25.964L309.379 25.9781L309.399 25.9934L310.93 27.2062L309.842 28.3169L308.329 27.1184L306.864 26.0981L306.806 26.0353V26.0349C306.806 26.0347 306.806 26.0345 306.806 26.0343C306.804 26.0338 306.804 26.0334 306.804 26.0328C306.804 26.0317 306.802 26.0304 306.8 26.0288C306.798 26.0258 306.794 26.0217 306.79 26.0169C306.782 26.0073 306.769 25.9946 306.757 25.9786C306.728 25.9468 306.691 25.9022 306.648 25.8479C306.564 25.7402 306.448 25.5866 306.341 25.4076C306.234 25.2318 306.121 25.0093 306.053 24.7662C305.987 24.5289 305.946 24.2088 306.074 23.8807L306.121 23.7656C306.238 23.4972 306.407 23.231 306.671 22.9977C306.973 22.7308 307.348 22.5502 307.79 22.4296Z" fill="#F5F5F5"/>
<path d="M320.146 23.8706L319.498 25.0077L318.948 24.7544L319.596 23.6177L320.146 23.8706Z" fill="#F5F5F5"/>
<path d="M344.145 26.4769L343.791 27.538L343.201 27.3787L343.553 26.3176L344.145 26.4769Z" fill="#F5F5F5"/>
<path d="M325.122 25.9625L324.517 26.0742L324.223 24.7856L324.828 24.6738L325.122 25.9625Z" fill="#F5F5F5"/>
<path d="M348.485 27.2208L347.932 27.4687L347.343 26.4076L347.895 26.1597L348.485 27.2208Z" fill="#F5F5F5"/>
<path d="M274.732 12.5794C274.732 13.6011 273.81 14.4293 272.674 14.4293C271.538 14.4293 270.616 13.6011 270.616 12.5794C270.616 11.5577 271.538 10.7295 272.674 10.7295C273.81 10.7295 274.732 11.5577 274.732 12.5794Z" fill="#D9D9D9"/>
<path d="M225.753 87.8709C225.753 88.8926 224.831 89.7208 223.695 89.7208C222.559 89.7208 221.638 88.8926 221.638 87.8709C221.638 86.8492 222.559 86.021 223.695 86.021C224.831 86.021 225.753 86.8492 225.753 87.8709Z" fill="#D9D9D9"/>
<path d="M272.674 129.679C272.674 130.7 271.752 131.529 270.616 131.529C269.48 131.529 268.558 130.7 268.558 129.679C268.558 128.657 269.48 127.829 270.616 127.829C271.752 127.829 272.674 128.657 272.674 129.679Z" fill="#D9D9D9"/>
<path d="M168.132 111.55C168.132 112.571 167.21 113.4 166.074 113.4C164.937 113.4 164.016 112.571 164.016 111.55C164.016 110.528 164.937 109.7 166.074 109.7C167.21 109.7 168.132 110.528 168.132 111.55Z" fill="#D9D9D9"/>
<path d="M37.2483 93.2354C37.2483 94.2571 36.327 95.0853 35.1904 95.0853C34.0538 95.0853 33.1325 94.2571 33.1325 93.2354C33.1325 92.2137 34.0538 91.3855 35.1904 91.3855C36.327 91.3855 37.2483 92.2137 37.2483 93.2354Z" fill="#D9D9D9"/>
<path d="M60.2969 147.993C60.2969 149.015 59.3756 149.843 58.239 149.843C57.1024 149.843 56.1811 149.015 56.1811 147.993C56.1811 146.971 57.1024 146.143 58.239 146.143C59.3756 146.143 60.2969 146.971 60.2969 147.993Z" fill="#D9D9D9"/>
<path d="M157.019 151.323C157.019 152.345 156.098 153.173 154.961 153.173C153.824 153.173 152.903 152.345 152.903 151.323C152.903 150.301 153.824 149.473 154.961 149.473C156.098 149.473 157.019 150.301 157.019 151.323Z" fill="#D9D9D9"/>
<path d="M235.426 160.942C235.426 161.964 234.504 162.792 233.368 162.792C232.232 162.792 231.31 161.964 231.31 160.942C231.31 159.92 232.232 159.092 233.368 159.092C234.504 159.092 235.426 159.92 235.426 160.942Z" fill="#D9D9D9"/>
<path d="M331.324 143.923C331.324 144.945 330.402 145.773 329.267 145.773C328.131 145.773 327.209 144.945 327.209 143.923C327.209 142.901 328.131 142.073 329.267 142.073C330.402 142.073 331.324 142.901 331.324 143.923Z" fill="#D9D9D9"/>
<path d="M375.981 195.813C375.981 196.069 375.751 196.276 375.467 196.276C375.183 196.276 374.952 196.069 374.952 195.813C374.952 195.558 375.183 195.351 375.467 195.351C375.751 195.351 375.981 195.558 375.981 195.813Z" fill="#6B5733"/>
<path d="M384.419 47.1727C384.419 48.1944 383.497 49.0226 382.361 49.0226C381.225 49.0226 380.303 48.1944 380.303 47.1727C380.303 46.151 381.225 45.3228 382.361 45.3228C383.497 45.3228 384.419 46.151 384.419 47.1727Z" fill="#D9D9D9"/>
<path d="M13.1707 7.76959C13.1707 8.79126 12.2493 9.6195 11.1128 9.6195C9.97625 9.6195 9.05488 8.79126 9.05488 7.76959C9.05488 6.74792 9.97625 5.91968 11.1128 5.91968C12.2493 5.91968 13.1707 6.74792 13.1707 7.76959Z" fill="#D9D9D9"/>
<path d="M149.405 9.61944C149.405 10.6411 148.483 11.4694 147.347 11.4694C146.21 11.4694 145.289 10.6411 145.289 9.61944C145.289 8.59777 146.21 7.76953 147.347 7.76953C148.483 7.76953 149.405 8.59777 149.405 9.61944Z" fill="#D9D9D9"/>
<path d="M348.817 84.171C348.817 85.1927 347.895 86.0209 346.759 86.0209C345.623 86.0209 344.701 85.1927 344.701 84.171C344.701 83.1493 345.623 82.321 346.759 82.321C347.895 82.321 348.817 83.1493 348.817 84.171Z" fill="#D9D9D9"/>
<path d="M392.856 10.7293C392.856 11.751 391.934 12.5792 390.798 12.5792C389.662 12.5792 388.74 11.751 388.74 10.7293C388.74 9.70764 389.662 8.87939 390.798 8.87939C391.934 8.87939 392.856 9.70764 392.856 10.7293Z" fill="#D9D9D9"/>
<path d="M192.415 28.1187C192.415 29.1404 191.494 29.9686 190.357 29.9686C189.221 29.9686 188.299 29.1404 188.299 28.1187C188.299 27.097 189.221 26.2688 190.357 26.2688C191.494 26.2688 192.415 27.097 192.415 28.1187Z" fill="#D9D9D9"/>
<path d="M266.5 74.9214C266.5 75.9432 265.578 76.7714 264.442 76.7714C263.306 76.7714 262.384 75.9432 262.384 74.9214C262.384 73.8997 263.306 73.0715 264.442 73.0715C265.578 73.0715 266.5 73.8997 266.5 74.9214Z" fill="#D9D9D9"/>
<path d="M118.33 67.1519C118.33 68.1736 117.409 69.0018 116.272 69.0018C115.136 69.0018 114.214 68.1736 114.214 67.1519C114.214 66.1302 115.136 65.302 116.272 65.302C117.409 65.302 118.33 66.1302 118.33 67.1519Z" fill="#D9D9D9"/>
<path d="M56.1811 54.5723C56.1811 55.594 55.2598 56.4222 54.1232 56.4222C52.9866 56.4222 52.0653 55.594 52.0653 54.5723C52.0653 53.5506 52.9866 52.7224 54.1232 52.7224C55.2598 52.7224 56.1811 53.5506 56.1811 54.5723Z" fill="#D9D9D9"/>
<path d="M56.1811 54.5723C56.1811 55.594 55.2598 56.4222 54.1232 56.4222C52.9866 56.4222 52.0653 55.594 52.0653 54.5723C52.0653 53.5506 52.9866 52.7224 54.1232 52.7224C55.2598 52.7224 56.1811 53.5506 56.1811 54.5723Z" fill="#D9D9D9"/>
<path d="M258.213 128.569C255.713 128.569 254.253 126.41 253.774 121.329C253.356 116.918 257.157 108.358 258.168 105.425C258.223 105.203 258.359 104.695 258.398 104.551C258.404 104.527 258.408 104.513 258.408 104.513C258.408 104.529 258.408 104.547 258.406 104.567C259.11 106.038 262.891 114.2 262.995 119.991C263.148 128.372 260.713 128.569 258.213 128.569Z" fill="#C8EBF2"/>
<path d="M164.868 179.072C162.091 179.072 160.47 176.649 159.935 170.948C159.471 165.997 163.696 156.392 164.817 153.101C164.88 152.852 165.032 152.282 165.075 152.12C165.082 152.093 165.086 152.077 165.086 152.077C165.086 152.095 165.085 152.115 165.083 152.138C165.865 153.788 170.065 162.948 170.182 169.446C170.351 178.85 167.646 179.072 164.868 179.072Z" fill="#C8EBF2"/>
<path d="M197.341 102.3C195.507 102.3 194.438 100.702 194.085 96.9395C193.778 93.6729 196.567 87.3348 197.307 85.1631C197.348 84.9987 197.448 84.6226 197.477 84.516C197.482 84.4979 197.485 84.4875 197.485 84.4875C197.485 84.4994 197.484 84.5129 197.482 84.5275C197.998 85.6166 200.77 91.6606 200.848 95.9487C200.959 102.154 199.174 102.3 197.341 102.3Z" fill="#C8EBF2"/>
<path d="M140.57 56.0522C139.181 56.0522 138.371 55.0966 138.104 52.8469C137.872 50.8938 139.984 47.1038 140.545 45.8054C140.576 45.707 140.652 45.4822 140.674 45.4184C140.677 45.4075 140.679 45.4014 140.679 45.4014C140.679 45.4086 140.679 45.4165 140.678 45.4252C141.069 46.0766 143.169 49.6904 143.227 52.2544C143.312 55.9649 141.959 56.0522 140.57 56.0522Z" fill="#C8EBF2"/>
<path d="M16.4709 62.342C14.9709 62.342 14.0959 61.1556 13.8072 58.3628C13.5566 55.9381 15.8379 51.2336 16.4435 49.6216C16.4773 49.4997 16.5593 49.2206 16.5825 49.1414C16.5865 49.1279 16.5887 49.1201 16.5887 49.1201C16.5887 49.1292 16.5881 49.139 16.5869 49.1499C17.0091 49.9583 19.2771 54.4445 19.3404 57.6275C19.4318 62.2336 17.9708 62.342 16.4709 62.342Z" fill="#C8EBF2"/>
<path d="M212.774 53.4623C210.943 53.4623 209.872 51.864 209.518 48.1016C209.214 44.835 212 38.4969 212.741 36.3252C212.782 36.1608 212.883 35.7847 212.912 35.6781C212.916 35.66 212.918 35.6497 212.918 35.6497C212.918 35.6615 212.918 35.675 212.916 35.6896C213.433 36.7787 216.205 42.8227 216.283 47.1108C216.394 53.3163 214.608 53.4623 212.774 53.4623Z" fill="#C8EBF2"/>
<path d="M254.28 19.2391C253.058 19.2391 252.346 18.1516 252.111 15.5916C251.905 13.369 253.766 9.05644 254.258 7.57882C254.286 7.46702 254.352 7.21106 254.371 7.13858C254.375 7.12617 254.377 7.11914 254.377 7.11914C254.377 7.1273 254.377 7.13638 254.375 7.14637C254.719 7.88741 256.567 11.9999 256.618 14.9174C256.694 19.1398 255.503 19.2391 254.28 19.2391Z" fill="#C8EBF2"/>
<path d="M120.317 18.8692C119.206 18.8692 118.558 17.6004 118.344 14.6138C118.159 12.0208 119.848 6.98943 120.297 5.26554C120.322 5.13512 120.383 4.83651 120.4 4.75195C120.403 4.73746 120.405 4.72925 120.405 4.72925C120.405 4.73876 120.404 4.74936 120.403 4.76103C120.716 5.62557 122.396 10.4234 122.443 13.8273C122.511 18.7532 121.429 18.8692 120.317 18.8692Z" fill="#C8EBF2"/>
<path d="M325.11 101.375C322.831 101.375 321.502 99.3813 321.064 94.6881C320.683 90.6133 324.148 82.7069 325.066 79.9979C325.118 79.7929 325.243 79.3236 325.278 79.1908C325.284 79.168 325.289 79.1553 325.289 79.1553C325.289 79.1701 325.287 79.1867 325.284 79.205C325.927 80.5636 329.369 88.1031 329.466 93.4521C329.604 101.193 327.386 101.375 325.11 101.375Z" fill="#C8EBF2"/>
<path d="M22.6235 116.359C20.7902 116.359 19.7207 114.761 19.3679 110.999C19.0616 107.732 21.8498 101.394 22.59 99.2225C22.6314 99.058 22.7314 98.6819 22.7598 98.5754C22.7647 98.5572 22.7676 98.5469 22.7676 98.5469C22.7676 98.5587 22.7668 98.5722 22.7653 98.5868C23.2813 99.6759 26.0533 105.72 26.1306 110.008C26.2424 116.214 24.4567 116.359 22.6235 116.359Z" fill="#C8EBF2"/>
<path d="M79.0104 102.3C77.177 102.3 76.1075 100.702 75.7548 96.9395C75.4484 93.6729 78.2366 87.3348 78.9769 85.1631C79.0182 84.9987 79.1182 84.6226 79.1466 84.516C79.1516 84.4979 79.1545 84.4875 79.1545 84.4875C79.1545 84.4994 79.1536 84.5129 79.1522 84.5275C79.6681 85.6166 82.4401 91.6606 82.5175 95.9487C82.6293 102.154 80.8436 102.3 79.0104 102.3Z" fill="#C8EBF2"/>
<path d="M51.6753 11.6543C50.3975 11.6543 49.6522 10.781 49.4062 8.72529C49.1928 6.94046 51.1361 3.47733 51.652 2.29076C51.6808 2.20099 51.7506 1.99544 51.7704 1.93724C51.7739 1.92727 51.7757 1.92163 51.7757 1.92163C51.7757 1.92818 51.7753 1.93547 51.7743 1.9435C52.1338 2.53858 54.0658 5.841 54.1197 8.18392C54.1977 11.5746 52.953 11.6543 51.6753 11.6543Z" fill="#C8EBF2"/>
<path d="M297.007 164.642C294.564 164.642 293.138 162.533 292.667 157.568C292.259 153.258 295.976 144.894 296.963 142.028C297.019 141.812 297.151 141.315 297.19 141.175C297.196 141.151 297.2 141.137 297.2 141.137C297.2 141.153 297.198 141.17 297.196 141.19C297.885 142.627 301.581 150.603 301.684 156.261C301.832 164.45 299.451 164.642 297.007 164.642Z" fill="#C8EBF2"/>
<path d="M39.4418 166.677C36.7196 166.677 35.1315 164.337 34.6078 158.829C34.153 154.047 38.2931 144.769 39.392 141.59C39.4536 141.349 39.6022 140.798 39.6443 140.643C39.6515 140.616 39.6557 140.601 39.6557 140.601C39.6557 140.618 39.6546 140.638 39.6524 140.659C40.4185 142.254 44.5348 151.102 44.6494 157.379C44.8155 166.463 42.1641 166.677 39.4418 166.677Z" fill="#C8EBF2"/>
<path d="M310.56 31.3326C309.397 30.9931 308.94 30.1838 309.237 28.6798C309.494 27.374 312.138 25.4667 312.908 24.7734C312.958 24.7182 313.073 24.593 313.106 24.5575C313.11 24.5514 313.114 24.5479 313.114 24.5479C313.112 24.5525 313.11 24.5575 313.108 24.5628C313.283 25.0749 314.207 27.8993 313.661 29.5533C312.875 31.9469 311.723 31.672 310.56 31.3326Z" fill="#C8EBF2"/>
<path d="M304.302 44.5825C302.89 44.1706 302.335 43.1884 302.695 41.3631C303.008 39.7783 306.216 37.4635 307.15 36.6222C307.21 36.5552 307.35 36.4031 307.389 36.36C307.395 36.3526 307.399 36.3484 307.399 36.3484C307.397 36.3541 307.395 36.36 307.391 36.3665C307.605 36.9879 308.724 40.4158 308.066 42.4231C307.111 45.3282 305.712 44.9945 304.302 44.5825Z" fill="#C8EBF2"/>
<path d="M324.122 196.368C324.122 196.623 323.891 196.83 323.607 196.83C323.323 196.83 323.093 196.623 323.093 196.368C323.093 196.113 323.323 195.906 323.607 195.906C323.891 195.906 324.122 196.113 324.122 196.368Z" fill="#6B5733"/>
<path d="M179.656 196.368C179.656 196.623 179.426 196.83 179.142 196.83C178.857 196.83 178.627 196.623 178.627 196.368C178.627 196.113 178.857 195.906 179.142 195.906C179.426 195.906 179.656 196.113 179.656 196.368Z" fill="#6B5733"/>
<path d="M251.5 163.166H217.312H212.276H207.85V167.403V199.324H258.063V167.403V163.166H251.5Z" fill="#2135B5"/>
<path d="M258.577 162.7V199.79H257.495L257.548 163.632H208.364V199.79H257.495H207.335V162.7H258.577Z" fill="#F5F5F5"/>
<path d="M218.658 167.269H247.31C247.31 167.269 248.619 176.228 245.334 174.908C244.104 174.413 244.225 172.692 242.871 172.801C241.628 172.9 241.301 175.732 240.614 174.908C239.926 174.085 240.638 172.858 239.408 172.801C238.179 172.743 238.327 174.807 237.101 174.908C235.765 175.019 236.043 172.69 234.707 172.801C233.481 172.902 233.969 174.918 232.736 174.908C231.514 174.899 232.016 172.918 230.801 172.801C229.458 172.671 229.711 175.069 228.373 174.908C227.186 174.766 227.741 172.781 226.542 172.801C225.36 172.819 225.955 174.771 224.782 174.908C223.473 175.061 223.78 172.747 222.461 172.801C221.195 172.852 221.424 174.335 220.349 174.908C217.269 176.55 218.658 167.269 218.658 167.269Z" fill="white"/>
<path d="M223.695 183.696H213.19V190.966H223.695V183.696Z" fill="white"/>
<path d="M223.798 183.604V191.059H213.087V183.604H223.798ZM213.293 190.874H223.593V183.789H213.293V190.874Z" fill="black"/>
<path d="M218.547 183.697L218.466 190.968L218.26 190.964L218.341 183.695L218.547 183.697Z" fill="black"/>
<path d="M223.695 187.33V187.515H212.994V187.33H223.695Z" fill="black"/>
<path d="M254.976 191.281V183.326L246.744 182.679L238.718 183.326V191.281H254.976Z" fill="white"/>
<path d="M255.079 183.242V191.373H238.615V183.242L246.744 182.586L255.079 183.242ZM238.821 183.411V191.188H254.873V183.411L246.744 182.772L238.821 183.411Z" fill="black"/>
<path d="M234.851 187.674L235.94 188.787V199.791H234.911V189.135L234.384 188.599H229.958L229.207 189.285L228.474 188.637L229.526 187.674H234.851Z" fill="white"/>
<path d="M229.429 200.146L228.501 200.149L228.532 188.599L229.46 188.597L229.429 200.146Z" fill="white"/>
<path d="M257.239 145.403L263.002 162.792H202.705L209.084 145.403H232.133H257.239Z" fill="#C3273C"/>
<path d="M257.622 144.941L263.691 163.255H201.993L208.712 144.941H257.622ZM203.416 162.33H262.312L256.857 145.866H209.457L203.416 162.33Z" fill="white"/>
<path d="M231.31 194.518C231.31 194.774 231.079 194.981 230.795 194.981C230.511 194.981 230.281 194.774 230.281 194.518C230.281 194.263 230.511 194.056 230.795 194.056C231.079 194.056 231.31 194.263 231.31 194.518Z" fill="#D0B895"/>
<path d="M231.104 194.518C231.104 194.365 230.966 194.241 230.795 194.241C230.624 194.241 230.487 194.365 230.487 194.518C230.487 194.672 230.624 194.796 230.795 194.796V194.981C230.511 194.981 230.281 194.774 230.281 194.518C230.281 194.263 230.511 194.056 230.795 194.056C231.079 194.056 231.31 194.263 231.31 194.518C231.31 194.774 231.079 194.981 230.795 194.981V194.796C230.966 194.796 231.104 194.672 231.104 194.518Z" fill="#6B5733"/>
<path d="M238.928 171.907C238.669 171.907 238.444 171.856 238.257 171.753C238.07 171.649 237.926 171.504 237.823 171.317C237.724 171.13 237.673 170.913 237.673 170.665C237.673 170.417 237.724 170.198 237.823 170.009C237.926 169.819 238.068 169.67 238.249 169.564C238.43 169.457 238.644 169.404 238.887 169.404C239.027 169.404 239.165 169.424 239.303 169.467C239.438 169.509 239.564 169.577 239.675 169.672C239.788 169.765 239.877 169.889 239.945 170.044C240.011 170.198 240.043 170.388 240.043 170.614V170.772H237.967V170.45H239.624C239.624 170.314 239.593 170.192 239.533 170.085C239.473 169.977 239.387 169.893 239.276 169.831C239.167 169.769 239.037 169.738 238.887 169.738C238.722 169.738 238.578 169.774 238.459 169.848C238.34 169.921 238.247 170.015 238.183 170.132C238.119 170.249 238.086 170.374 238.086 170.507V170.722C238.086 170.904 238.121 171.059 238.191 171.187C238.263 171.313 238.362 171.409 238.488 171.475C238.615 171.54 238.761 171.573 238.928 171.573C239.037 171.573 239.136 171.559 239.224 171.532C239.313 171.504 239.389 171.462 239.453 171.406C239.517 171.349 239.568 171.279 239.603 171.194L240.002 171.295C239.959 171.417 239.889 171.525 239.79 171.617C239.69 171.709 239.568 171.78 239.422 171.832C239.276 171.882 239.111 171.907 238.928 171.907Z" fill="#2135B5"/>
<path d="M235.847 169.435V169.751H234.397V169.435H235.847ZM234.831 171.857V169.101C234.831 168.962 234.868 168.847 234.94 168.754C235.012 168.662 235.107 168.592 235.222 168.546C235.337 168.5 235.461 168.477 235.588 168.477C235.691 168.477 235.773 168.484 235.837 168.499C235.903 168.513 235.95 168.527 235.981 168.54L235.862 168.861C235.841 168.855 235.812 168.847 235.775 168.838C235.738 168.828 235.691 168.823 235.631 168.823C235.493 168.823 235.395 168.854 235.335 168.916C235.275 168.978 235.244 169.069 235.244 169.189V171.857H234.831Z" fill="#2135B5"/>
<path d="M231.176 171.914C231.005 171.914 230.851 171.885 230.713 171.827C230.573 171.768 230.462 171.683 230.38 171.573C230.299 171.462 230.258 171.327 230.258 171.169C230.258 171.031 230.289 170.918 230.349 170.832C230.41 170.745 230.491 170.676 230.594 170.627C230.694 170.578 230.808 170.541 230.929 170.517C231.052 170.491 231.178 170.471 231.304 170.457C231.466 170.438 231.6 170.424 231.701 170.414C231.804 170.404 231.88 170.386 231.925 170.362C231.974 170.338 231.997 170.296 231.997 170.236V170.223C231.997 170.068 231.95 169.947 231.855 169.861C231.762 169.774 231.62 169.731 231.429 169.731C231.231 169.731 231.077 169.77 230.964 169.848C230.853 169.926 230.773 170.009 230.727 170.097L230.334 169.971C230.404 169.824 230.499 169.709 230.616 169.627C230.733 169.544 230.863 169.487 231.001 169.454C231.141 169.42 231.279 169.404 231.415 169.404C231.501 169.404 231.602 169.413 231.713 169.432C231.826 169.45 231.935 169.487 232.042 169.544C232.147 169.601 232.236 169.686 232.306 169.801C232.376 169.915 232.411 170.069 232.411 170.261V171.857H231.997V171.529H231.976C231.948 171.581 231.902 171.638 231.837 171.697C231.771 171.757 231.684 171.808 231.575 171.85C231.466 171.892 231.334 171.914 231.176 171.914ZM231.24 171.579C231.404 171.579 231.542 171.55 231.653 171.492C231.767 171.435 231.853 171.36 231.911 171.269C231.968 171.177 231.997 171.081 231.997 170.98V170.639C231.981 170.659 231.941 170.676 231.882 170.692C231.824 170.706 231.756 170.719 231.678 170.731C231.602 170.742 231.528 170.751 231.456 170.759C231.384 170.767 231.326 170.773 231.283 170.778C231.174 170.791 231.073 170.811 230.98 170.84C230.888 170.867 230.814 170.909 230.756 170.964C230.701 171.019 230.672 171.094 230.672 171.188C230.672 171.317 230.725 171.415 230.832 171.482C230.939 171.547 231.075 171.579 231.24 171.579Z" fill="#2135B5"/>
<path d="M228.256 169.637H227.822C227.795 169.524 227.75 169.426 227.686 169.341C227.622 169.255 227.546 169.184 227.453 169.126C227.365 169.067 227.264 169.023 227.155 168.994C227.044 168.964 226.931 168.949 226.811 168.949C226.593 168.949 226.395 168.999 226.218 169.098C226.044 169.196 225.904 169.342 225.801 169.534C225.698 169.727 225.646 169.963 225.646 170.242C225.646 170.522 225.698 170.758 225.801 170.95C225.904 171.143 226.044 171.288 226.218 171.387C226.395 171.486 226.593 171.535 226.811 171.535C226.931 171.535 227.044 171.52 227.155 171.491C227.264 171.462 227.365 171.418 227.453 171.36C227.546 171.301 227.622 171.229 227.686 171.144C227.75 171.058 227.795 170.959 227.822 170.848H228.256C228.223 171.013 228.163 171.16 228.077 171.291C227.99 171.421 227.883 171.532 227.754 171.624C227.626 171.714 227.48 171.783 227.322 171.83C227.161 171.877 226.992 171.901 226.811 171.901C226.505 171.901 226.231 171.834 225.992 171.699C225.755 171.565 225.566 171.373 225.43 171.125C225.292 170.877 225.225 170.583 225.225 170.242C225.225 169.902 225.292 169.607 225.43 169.359C225.566 169.111 225.755 168.92 225.992 168.786C226.231 168.651 226.505 168.584 226.811 168.584C226.992 168.584 227.161 168.607 227.322 168.655C227.48 168.702 227.626 168.771 227.754 168.863C227.883 168.953 227.99 169.064 228.077 169.194C228.163 169.323 228.223 169.471 228.256 169.637Z" fill="#2135B5"/>
<path d="M254.77 185.269V185.361V185.454H238.718V185.269H254.77Z" fill="black"/>
<path d="M254.873 188.599V188.784H238.615V188.599H254.873Z" fill="black"/>
<path d="M44.8626 194.148C44.8626 194.404 44.6323 194.611 44.3481 194.611C44.0639 194.611 43.8336 194.404 43.8336 194.148C43.8336 193.893 44.0639 193.686 44.3481 193.686C44.6323 193.686 44.8626 193.893 44.8626 194.148Z" fill="#6B5733"/>
</g>
<path d="M359.877 15.8988V11.752C359.877 11.752 358.679 14.7738 356.848 15.8988C355.875 16.4971 355.2 17.2555 354.036 16.9806C353.287 16.8036 352.522 15.8988 352.522 15.8988C352.522 15.8988 351.617 13.1852 352.522 11.752C353.63 9.99616 357.93 9.40818 357.93 9.40818L355.334 7.60522L354.036 6.70374C353.337 5.82299 354.036 3.99931 354.036 3.99931C354.036 3.99931 353.921 1.2735 355.334 0.393396C356.755 -0.491743 359.877 0.393396 359.877 0.393396C359.877 0.393396 362.806 1.04881 363.987 2.19635C365.152 3.32886 365.501 5.80226 365.501 5.80226C365.501 5.80226 368.376 4.23142 370.476 3.99931C371.481 3.88825 372.101 3.75791 373.072 3.99931C375.096 4.50223 375.972 5.86863 376.317 7.60522C376.649 9.27524 376.295 10.6035 374.803 11.752C373.507 12.7495 370.476 12.8338 370.476 12.8338L365.501 11.752L367.448 12.8338V15.8988C367.448 15.8988 366.935 18.3834 365.501 19.1441C364.004 19.938 362.322 20.0902 360.958 19.1441C359.745 18.3025 359.877 15.8988 359.877 15.8988Z" fill="#F6C1EF"/>
<path d="M363.013 8.67536V19.6865" stroke="#843C08" stroke-width="0.5"/>
<path d="M363.013 8.78655L365.381 19.1304" stroke="#843C08" stroke-width="0.5"/>
<path d="M362.855 8.78654L374.853 11.5671" stroke="#843C08" stroke-width="0.5"/>
<path d="M363.171 8.67567L376.274 9.34302" stroke="#843C08" stroke-width="0.5"/>
<path d="M363.171 8.56421L375.326 5.67239" stroke="#843C08" stroke-width="0.5"/>
<path d="M363.171 8.56421L359.224 0.444865" stroke="#843C08" stroke-width="0.5"/>
<path d="M363.328 8.67554L354.33 2.22455" stroke="#843C08" stroke-width="0.5"/>
<path d="M363.171 8.67554L353.856 5.45004" stroke="#843C08" stroke-width="0.5"/>
<path d="M363.171 8.56397L354.172 16.9058" stroke="#843C08" stroke-width="0.5"/>
<path d="M363.328 8.34184L352.593 14.9041" stroke="#843C08" stroke-width="0.5"/>
</svg>
